<?xml version="1.0" standalone="no"?>
<!DOCTYPE svg PUBLIC "-//W3C//DTD SVG 1.1//EN" "http://www.w3.org/Graphics/SVG/1.1/DTD/svg11.dtd" >
<svg>
<metadata>
Created by FontForge 20090622 at Sun Apr 21 05:53:12 2019
 By deploy user
Copyright Mustafa Jabbar, Ananda Computers, 8/6 Segun Bagicha, Dhaka-1000, Bangladesh.
</metadata>
<defs>
<font id="SutonnyMJ" horiz-adv-x="1" >
  <font-face 
    font-family="SutonnyMJ"
    font-weight="400"
    font-style="italic"
    font-stretch="normal"
    units-per-em="1000"
    panose-1="0 0 0 0 0 0 0 0 0 0"
    ascent="800"
    descent="-200"
    x-height="86"
    cap-height="536"
    bbox="-657.6 -315 933 863"
    underline-thickness="20"
    underline-position="-123"
    slope="-11"
    unicode-range="U+0020-U+2212"
  />
<missing-glyph horiz-adv-x="500" 
d="M63 0v725h375v-725h-375zM125 63h250v600h-250v-600z" />
    <glyph glyph-name=".notdef" horiz-adv-x="500" 
d="M63 0v725h375v-725h-375zM125 63h250v600h-250v-600z" />
    <glyph glyph-name="NULL" horiz-adv-x="0" 
 />
    <glyph glyph-name="nonmarkingreturn" horiz-adv-x="269" 
 />
    <glyph glyph-name="space" unicode=" " horiz-adv-x="269" 
 />
    <glyph glyph-name="space" unicode="&#xa0;" horiz-adv-x="269" 
 />
    <glyph glyph-name="exclam" unicode="!" horiz-adv-x="295" 
d="M232 404l-19 -193l-20 20l-29 170l-11 85q-3 23 -3 36q0 67 43 69q30 1 42 -42q8 -30 5 -66q-2 -22 -8 -79zM255 128q0 -49 -45 -49q-22 0 -36.5 15t-15.5 37q-1 21 15 33.5t37 12.5q45 0 45 -49z" />
    <glyph glyph-name="quotedbl" unicode="&#x22;" horiz-adv-x="347" 
d="M105 378h-17l-29 167q-3 15 9.5 26t27.5 11t27 -11.5t10 -25.5zM258 378h-17l-28 167q-2 15 10 26t27 11t26.5 -11t9.5 -26z" />
    <glyph glyph-name="numbersign" unicode="#" horiz-adv-x="500" 
d="M470 271v-55h-109l-31 -216h-58l31 216h-134l-33 -216h-58l33 216h-107v55h116l21 134h-110v55h118l31 202h58l-31 -202h133l30 202h58l-30 -202h97v-55h-105l-20 -134h100zM332 405h-133l-21 -134h134z" />
    <glyph glyph-name="dollar" unicode="$" horiz-adv-x="384" 
d="M375 264q0 -92 -100 -160q-38 -26 -57 -30q-15 -3 -64 1q-23 2 -49 25.5t-27 45.5t-1 157h-44l-48 48h96q1 7 0 95q0 34 -35 34q-15 0 -21 -5l-16 46q43 18 71 8q52 -18 51 -71q-1 -31 1 -69q1 -24 0 -37h27l47 -49h-72v-136q0 -42 48 -42q60 0 95 65q24 44 21 56
q-36 -3 -58 14t-18 53q6 59 65 59q88 0 88 -108z" />
    <glyph glyph-name="percent" unicode="%" horiz-adv-x="751" 
d="M586 678l-382 -695h-55l332 606q-50 -21 -104 -21q-40 0 -68 12q6 -14 6 -42q1 -73 -31 -130q-38 -69 -106 -69q-54 0 -87 36.5t-33 91.5q0 73 48 131q50 62 122 62q21 0 33 -8q9 -9 26 -22q37 -28 112 -28q40 0 80 21.5t64 54.5h43zM669 208q0 -75 -33 -132
q-39 -69 -109 -67q-116 3 -116 128q0 67 43 128q46 67 111 67q68 0 92 -49q12 -25 12 -75zM234 620q-43 0 -72 -79q-25 -69 -25 -113q0 -58 40 -58q47 0 81 70q28 57 28 101q0 30 -11 51q-14 28 -41 28zM584 292q-42 0 -72 -80q-25 -67 -25 -112q0 -59 40 -59q45 0 81 70
q29 57 29 101q0 29 -12 52q-14 28 -41 28z" />
    <glyph glyph-name="ampersand" unicode="&#x26;" 
d="M-21 -132l-16 -23l-171 107l37 41z" />
    <glyph glyph-name="quotesingle" unicode="'" horiz-adv-x="153" 
d="M85 378h-17l-28 167q-2 15 9.5 26t26.5 11t27 -11t10 -26z" />
    <glyph glyph-name="parenleft" unicode="(" horiz-adv-x="333" 
d="M304 -161l-12 -16q-243 162 -243 437q0 264 246 416l9 -16q-170 -118 -170 -391q0 -145 28 -231q38 -117 142 -199z" />
    <glyph glyph-name="parenright" unicode=")" horiz-adv-x="333" 
d="M38 -177l-9 16q170 118 170 390q0 113 -17 194q-32 152 -153 237l12 16q83 -39 151 -143q92 -139 92 -301q0 -127 -68 -237q-65 -105 -178 -172z" />
    <glyph glyph-name="asterisk" unicode="*" horiz-adv-x="500" 
d="M393 346q-36 0 -47 32q-7 19 -90 80q-1 -28 10 -78q11 -53 12 -77q0 -17 -12 -29t-29 -8q-27 6 -32 30q-6 27 9 45q11 13 18 55q3 17 9 62q-64 -37 -114 -97q-8 -10 -26 -10q-37 0 -37 40q0 19 18.5 31.5t38 9.5t111.5 38q-61 37 -138 52q-27 5 -27 35q0 16 11 27.5
t27 11.5q35 0 47 -32q5 -14 89 -82q0 35 -13.5 92.5t-13.5 71.5q0 16 14 27.5t30 8.5q33 -7 33 -45q0 -18 -10 -30q-15 -18 -23 -125q63 29 116 91q11 9 27 9q37 0 37 -38q0 -37 -60 -44q-33 -4 -45 -8q-18 -7 -67 -24q62 -34 138 -48q27 -5 27 -35q0 -39 -38 -39z" />
    <glyph glyph-name="plus" unicode="+" horiz-adv-x="564" 
d="M250 293v219h64v-219h220v-64h-220v-222h-64v222h-220v64h220z" />
    <glyph glyph-name="comma" unicode="," horiz-adv-x="250" 
d="M89 -143l-9 20q30 14 55 44q30 35 24 64q-2 11 -11 11q8 0 -32 -4q-53 5 -53 49q0 60 60 60q79 0 79 -98q0 -41 -36.5 -86t-76.5 -60z" />
    <glyph glyph-name="hyphen" unicode="-" horiz-adv-x="333" 
d="M289 194h-246v63h246v-63z" />
    <glyph glyph-name="period" unicode="." horiz-adv-x="250" 
d="M125 101q48 0 57 -45q6 -28 -11 -49t-46 -21q-47 0 -56 45q-6 27 11 48.5t45 21.5z" />
    <glyph glyph-name="slash" unicode="/" horiz-adv-x="278" 
d="M50 -108h-62l252 790h62z" />
    <glyph glyph-name="zero" unicode="0" horiz-adv-x="501" 
d="M234 55q-83 4 -135 64q-50 57 -51 141q-1 77 61 130q59 50 138 50q109 0 165 -88q31 -49 31 -107q0 -79 -65 -136.5t-144 -53.5zM382 288q0 80 -80 98q-9 2 -20 2q-39 0 -82.5 -25.5t-62.5 -59.5q-32 -57 -32 -98q0 -49 45 -80q21 -14 50 -14q56 0 114 47q68 55 68 130z
" />
    <glyph glyph-name="one" unicode="1" horiz-adv-x="438" 
d="M257 25q-50 -29 -90 -29q-32 0 -61 21q-33 23 -33 53q0 29 25 56q22 24 52 34q12 4 31 4q69 0 101 -36q31 34 31 71q0 28 -32 66q-61 72 -155 158q-50 46 -50 84q0 36 35 56q14 8 27 8q38 0 51 -45q3 -12 0 -29q-4 -20 -3 -21q76 -72 125 -138q56 -76 56 -150
q0 -99 -110 -163z" />
    <glyph glyph-name="two" unicode="2" horiz-adv-x="479" 
d="M480 -81q-68 71 -162 130q-76 48 -115 65q-54 24 -120 37l-49 170q11 -39 116 -75q50 -17 81 -21q33 -4 71 15q43 21 43 52q0 9 -5 19q-30 60 -88 89l-97 47q-47 23 -47 56q0 16 10 38q21 20 44 20q6 -1 34 -8q17 -11 20 -45q86 -42 124 -81q49 -51 49 -115
q0 -56 -24 -88q-9 -11 -50 -45q-12 -9 -30 -15l-33 -10q10 -5 121 -87q30 -22 95 -84z" />
    <glyph glyph-name="three" unicode="3" horiz-adv-x="508" 
d="M475 267q0 -122 -72 -185q-54 -47 -122 -45q-110 3 -198 154q-72 124 -87 251l44 -19q13 -86 61 -169q19 -33 51 -66q55 -57 119 -57q61 0 108 41q51 44 47 104q-5 90 -39 121q-22 21 -73 36q11 -21 14 -37q6 -29 -8 -56q-26 -48 -77 -48q-41 0 -67 35q-24 32 -24 74
q0 28 17.5 56t42.5 40q21 10 62 14q43 4 99 -34q102 -70 102 -210z" />
    <glyph glyph-name="four" unicode="4" horiz-adv-x="497" 
d="M405 181q3 -65 -60 -107q-52 -35 -122 -41q-81 -7 -136 42q-39 35 -47 74q-5 26 2 46q31 86 114 98q-84 23 -99 93q-3 14 -3 31q0 64 56 109q50 41 117 47q58 5 107 -29q53 -36 53 -94q0 -35 -27.5 -74t-60.5 -50q102 -31 106 -145zM167 380q31 -24 68 -30q42 24 53 32
q39 29 39 65q0 38 -32.5 61t-71.5 23q-35 0 -65 -21q-34 -23 -34 -56q0 -41 43 -74zM334 161q-2 36 -44.5 74t-79.5 38q-4 0 -6 -1q-55 -38 -73 -64q-11 -16 -12 -44q-2 -46 50 -69q21 -10 52 -10q88 0 113 76z" />
    <glyph glyph-name="five" unicode="5" horiz-adv-x="501" 
d="M486 364q-71 -18 -127 -64q-78 -64 -78 -134q0 -106 121 -138q-40 -19 -95 -19q-95 0 -168 43q-83 48 -102 135q-6 27 -6 54q0 139 141 249q63 49 111 57l82 -19q-20 -5 -32.5 -25t-13.5 -41q0 -18 11 -33q6 -8 26 -9q24 -1 27 -3l54 -33q25 -14 49 -20zM347 367
q-29 5 -36 9q-11 6 -30 29q-10 12 -22 59q-43 -20 -82.5 -61.5t-57.5 -84.5q-24 -57 -24 -102q0 -54 44 -100q39 -42 94 -60q7 -1 44 -8q-58 53 -58 127q0 62 35.5 116.5t92.5 75.5z" />
    <glyph glyph-name="six" unicode="6" horiz-adv-x="483" 
d="M325 18q-22 -5 -41 -5q-69 0 -133 61q-52 49 -86 123q-27 58 -53 157q-8 31 -13 83l29 -13q15 -79 38.5 -131.5t73 -121t142.5 -68.5q49 0 86.5 26t48.5 72q8 33 2 63q-5 24 -20 48q-12 -27 -40 -50t-57 -28q-16 -3 -32 -3q-30 0 -54 16q-45 29 -51 75l-19 134
q-19 0 -32.5 15t-13.5 34q0 23 17 36t40 11q61 -4 61 -78v-158q0 -13 9.5 -21.5t22.5 -7.5q23 2 42 19q57 52 76 112q95 -70 95 -187q0 -72 -34 -131q-38 -67 -104 -82z" />
    <glyph glyph-name="seven" unicode="7" horiz-adv-x="504" 
d="M467 35q-5 -41 -61 -35q-48 10 -48 78v179l-148 -1q-44 4 -81.5 45t-37.5 85q0 55 51.5 106.5t106.5 52.5q61 1 119 -61t50 -122v-266q29 1 41 -15t8 -46zM359 330q1 6 1 13q0 29 -21 77q-26 60 -55 72q-30 6 -74 -30t-50 -67q-4 -20 -4 -31q0 -30 23 -32l25 -2h155z" />
    <glyph glyph-name="eight" unicode="8" horiz-adv-x="517" 
d="M395 299h-39q-28 0 -28 -14q0 -4 3 -10q15 -30 15 -59q0 -63 -66.5 -128t-127.5 -65q-21 0 -53 37q-28 33 -37 58v330q-25 -2 -41.5 12t-15.5 39q1 52 44 52q23 0 42.5 -15.5t21.5 -37.5l5 -52v-121q9 17 35 34t45 19q9 1 17 1q37 0 86 -58q6 -7 9 -7q11 20 29 46
q20 16 58 15q52 -1 65 17l10 23l8 -3q4 -18 4 -33q0 -79 -89 -80zM269 249q2 7 2 13q0 22 -24 36q-20 12 -44 12q-45 0 -86 -29v-170q9 -27 13 -28q55 0 115 90q26 39 24 76z" />
    <glyph glyph-name="nine" unicode="9" horiz-adv-x="482" 
d="M447 214q4 -62 -69.5 -126.5t-135.5 -59.5l17 96q4 23 0 42q-4 20 -21.5 45t-35.5 35q-7 4 -37 9q-23 4 -43 -34q-18 -33 -18 -58q0 -24 16 -36q8 1 14 1q43 0 43 -47q0 -54 -44 -54q-60 0 -81 70q-6 20 -6 39q0 62 38 112q41 54 101 54q54 0 94.5 -46.5t40.5 -100.5
q0 -21 -7 -40l48 34q28 25 28 61q0 60 -63 94l-143 56q-169 66 -157 163q14 53 51 53q38 0 46 -37q6 -30 -12 -44q-4 -3 -4 -6q0 -18 79 -41q98 -29 117 -37q60 -26 97 -72q43 -56 47 -125z" />
    <glyph glyph-name="colon" unicode=":" horiz-adv-x="278" 
d="M138 198q47 0 56 -45q6 -29 -10.5 -49.5t-45.5 -20.5q-47 0 -56 45q-6 28 11 49t45 21zM138 416q48 0 57 -45q6 -28 -11 -49t-46 -21q-47 0 -56 45q-6 27 11 48.5t45 21.5z" />
    <glyph glyph-name="semicolon" unicode=";" horiz-adv-x="278" 
d="M89 -49l-9 20q27 12 53 43q30 35 29 61q0 15 -14 15q8 0 -32 -4q-53 5 -53 49q0 60 60 60q38 0 60 -31q19 -27 19 -67q0 -41 -36.5 -86t-76.5 -60zM163 319q-17 -19 -38 -19q-25 0 -42 18t-17 43q0 22 18 38t41 16q19 0 35 -12.5t20 -31.5q6 -27 -17 -52z" />
    <glyph glyph-name="less" unicode="&#x3c;" horiz-adv-x="564" 
d="M536 62v-62l-509 234v54l509 234v-62l-428 -199z" />
    <glyph glyph-name="equal" unicode="=" horiz-adv-x="564" 
d="M534 390v-64h-504v64h504zM534 196v-64h-504v64h504z" />
    <glyph glyph-name="greater" unicode="&#x3e;" horiz-adv-x="564" 
d="M27 62l428 199l-428 199v62l509 -234v-54l-509 -234v62z" />
    <glyph glyph-name="question" unicode="?" horiz-adv-x="373" 
d="M286 268q-31 -26 -63 -62q-16 -18 -16 -33l12 -30l-14 -19l-34 19q-27 15 -33 62q-4 33 30 61l59 48q51 40 48 90q-1 25 -18 42.5t-41 13.5q-10 -2 -24 -16q24 -17 24 -39q0 -43 -56 -50q-26 -3 -46.5 19.5t-20.5 49.5q0 26 21 56q31 45 109 45q42 0 71 -18
q61 -39 61 -109q0 -71 -69 -130zM189 -16q-72 -4 -72 49q0 25 19 42t44 19q50 4 60 -43q2 -9 2 -17q0 -47 -53 -50z" />
    <glyph glyph-name="at" unicode="@" horiz-adv-x="819" 
d="M420 118q-46 40 -87 51q-42 6 -84 13l-49 120q59 -41 133 -41q69 0 110 39q29 27 29 54q1 29 -25 45q-22 14 -52 14q-11 0 -18 -3q-1 -32 -39 -66q-20 -18 -50 -18q-51 0 -48 42q2 31 23 57q37 45 101 39l42 -4q18 -2 43 -12q64 -26 64 -97q0 -107 -124 -153q-2 -1 -2 -2
q0 -4 39 -28l42 -32q63 -48 108 -48q23 0 36 12q48 45 72 126q13 44 13 80q0 35 -11 66q-26 74 -77 124q-55 55 -128 68q-47 9 -105 -3q-209 -42 -246 -276q-10 -63 -10 -89q0 -52 19 -109q33 -99 88 -143q59 -47 161 -47q73 0 121 15q32 10 93 43l16 -33q-43 -22 -104 -44
q-23 -8 -90 -16h-65q-94 0 -180 69q-77 63 -117 156q-13 31 -20 63q-16 77 -1 135q13 51 29 89q29 71 75 110q138 118 272 118q173 0 262 -131q52 -77 52 -166q0 -99 -77 -207q-34 -47 -87 -47q-14 0 -28 3q-23 5 -119 64z" />
    <glyph glyph-name="A" unicode="A" horiz-adv-x="601" 
d="M609 508h-86v-512l-19 15q-23 95 -107 196q-47 -74 -121 -74q-101 0 -182 128q-64 101 -86 221l31 -13q43 -118 77 -166q60 -84 151 -84q40 0 67.5 23t27.5 62q0 27 -13 57q-15 37 -38 36q-17 -52 -68 -52q-31 0 -55.5 19.5t-24.5 49.5q0 34 32 53q27 16 63 16
q68 0 117.5 -55.5t49.5 -123.5q0 -14 -3 -27l51 -98v329h-477l-50 50h612z" />
    <glyph glyph-name="B" unicode="B" horiz-adv-x="469" 
d="M514 508h-298q3 -11 13 -27q12 -12 50 -22q43 -11 74 -60t26 -94q-6 -53 -38 -84q-21 -20 -60.5 -35t-45.5 -21q0 -3 46 -32q59 -37 91 -67l76 -71l16 -68q-148 168 -381 224l-60 125q63 -40 143 -40q49 0 98 25q26 13 46 42q12 17 5 51q-5 24 -24 39.5t-43 15.5
q-11 0 -22 -4q0 -36 -41 -72q-21 -19 -53 -19q-19 0 -36.5 10.5t-21.5 28.5q-5 22 9.5 48.5t35.5 37.5q3 3 66 31q1 1 0 3q-2 11 -31 35h-154l-50 50h329q32 3 35 5q14 4 28 21q4 5 4 10q0 18 -34 27q-27 7 -49 5q-37 0 -99 -5q-25 -2 -35 -2q-57 0 -102 27q-52 32 -52 85
q0 26 16 46q2 5 19 5q16 0 18 -1q-25 -15 -25 -38q0 -29 31 -44q22 -11 32 -11q15 -3 62 3q54 6 67 6q19 0 45 -1q53 -2 81 -20q68 -43 62 -118h81z" />
    <glyph glyph-name="C" unicode="C" horiz-adv-x="513" 
d="M565 508h-399q-8 0 -8 -13q0 -29 11 -29q31 -4 59 -24.5t39 -48.5q8 -20 7 -51q29 38 54 58q51 41 83 54l82 -54q-54 -51 -73 -86q-47 -88 -47 -171q0 -62 46 -151l-42 21l-23 69q-18 54 -18 105q0 83 42 172q-6 -13 -38 -48l-45 -51q-35 -47 -57 -68q-39 -38 -79 -49
q-46 0 -75 43q-21 31 -20 60q0 6 2 8l20 18q14 -54 41 -54q9 0 18 3q24 8 72 61q15 16 20 46q4 21 -3 42.5t-26 26.5q-25 6 -40 -6q3 -27 -11.5 -47t-41.5 -20q-68 0 -68 65q0 39 42 67q22 15 35 13l-23 39h-107l-50 50h421q29 10 26 37q-2 20 -39 24q6 -1 -45 -1
q-12 0 -36.5 -3.5t-38.5 -3t-40 -1.5q-31 -1 -42 -1q-50 0 -90 27q-45 30 -45 78q0 14 15 39q15 22 16 21q18 -18 17 -20q-14 -18 -14 -33q-1 -43 63 -43q16 0 47.5 3.5t47.5 3.5q11 0 33 1.5t33 1.5q114 0 145 -72q13 -31 10 -58h87z" />
    <glyph glyph-name="D" unicode="D" horiz-adv-x="521" 
d="M567 508h-320v-148l4 -21q9 -19 27 -19q11 0 48 45.5t52 45.5q34 0 64 -61q26 -52 26 -92q0 -121 -78 -169q-50 -31 -121 -25q-73 6 -120 61q-20 23 -58 93q-8 18 -28 75q-14 40 -22 111l-8 74l30 -16q4 -67 39 -158q16 -42 41 -73l37 -46q39 -37 102 -37q36 0 71 17
t52 46q23 39 23 68q0 31 -25 59q-5 -17 -37 -47q-51 -48 -87 -48q-32 0 -54 26t-25 59q-1 4 -2 0v180h-206l-48 50h391q8 8 31 18l20 8q2 20 -29 33q-26 11 -48 9q-36 0 -99 -5q-25 -2 -36 -2q-73 0 -118 40q-27 24 -33 53q-7 31 9 60q9 17 14 15l23 -10q-20 -15 -20 -35
q0 -23 23 -39t48 -16q-9 0 88 5l78 4q151 -10 144 -138h87z" />
    <glyph glyph-name="E" unicode="E" horiz-adv-x="561" 
d="M608 508h-298v-138q0 -65 8 -63q57 15 102 85q11 26 20 26q6 0 16 -9q74 -69 74 -151q0 -117 -87 -170q-54 -33 -114 -33q-109 0 -188 108q-59 80 -91 203q-4 14 -8 78q2 9 3 18l20 -20q7 -33 26 -106q13 -51 49 -104q43 -64 75 -82q-28 33 -68 129q-14 33 -22 94
q-4 27 -10 92l29 -21q7 -141 84 -238q48 -60 113 -60q70 0 118 53q32 35 32 74q0 19 -24 63q-5 -15 -40 -47q-28 -25 -42 -34q-26 -16 -49 -16q-22 0 -44 16t-25 38q-8 67 -8 73v142h-260l-50 50h458q15 4 15 22q0 38 -66 38q-57 0 -67 -2q-35 -7 -89 -7q-83 0 -129 11
q-84 20 -97 81q-2 7 7 42t10 34l14 -12q16 -18 14 -20q-13 -19 -13 -29q0 -41 85 -41q29 0 84.5 6.5t83.5 6.5q84 1 136 -23q24 -11 43 -44.5t22 -62.5h99z" />
    <glyph glyph-name="F" unicode="F" horiz-adv-x="605" 
d="M659 508h-150v-404l-16 19q-2 23 -29 75q-17 33 -33.5 48t-51.5 32v-241l-17 18l-18 50q-6 17 -23 42q-64 94 -198 118l-52 75q47 37 84 60q21 13 143 75q-10 14 -30 27.5t-35 13.5q-9 -19 -49.5 -40.5t-65.5 -24.5q-8 -1 -20 -1q-66 0 -81 55q-7 25 6.5 46.5t38.5 24.5
q48 6 49 -49q68 7 104 69q73 -36 114 -110v172l50 -49v-268q55 -35 80 -79v393l45 -37l3 -60h101zM330 188v222q-80 -40 -148 -91q66 -35 112 -85q15 -16 36 -46z" />
    <glyph glyph-name="G" unicode="G" horiz-adv-x="580" 
d="M495 -3l-25 24q-7 29 -30 76q-23 27 -70 27q-24 0 -84 -9q-54 -8 -85 -5q-98 8 -136 81q-24 45 -23 103q0 21 7.5 59t15.5 54q7 20 13 20q3 0 6 -4l20 -21q-17 -26 -22 -45q-2 -11 -5 -50q-4 -54 34 -92q16 -16 53 -24.5t62 -5.5q45 6 75 6q71 0 111 -27l32 -29v364
q0 11 -15 11q-40 0 -101 -56q-39 -36 -48 -83q17 3 26 3q20 0 31.5 -17t11.5 -38q0 -20 -12 -37.5t-31 -20.5q-13 -2 -24 -2q-54 0 -74 42q-14 29 -10 52q17 107 110 174q53 38 103 36q25 -1 61 -38q23 -24 23 -40v-488z" />
    <glyph glyph-name="H" unicode="H" horiz-adv-x="635" 
d="M510 391q-7 -2 -24 -11v-384l-23 24q-6 28 -28 75q-20 24 -70 24q-23 0 -69.5 -5.5t-69.5 -5.5q-27 0 -49 5q-134 30 -134 167q0 35 10 74q6 25 32 63l18 -23q-21 -30 -25 -95q-3 -50 33 -85q16 -15 54 -25q35 -9 59 -6q38 5 70 5q72 0 111 -27l32 -28v360q0 11 -15 11
q-43 0 -97 -59l-20 -22q-19 -21 -30 -58q17 4 27 4q20 0 32 -16.5t12 -37.5q0 -18 -12.5 -36.5t-29 -21.5t-28.5 -3q-64 0 -79 70q-8 36 11 82q36 88 139 138q48 14 59 13q16 -5 54 -31q8 -6 17 -37.5t6 -34.5q56 7 56 48q0 14 -8 34q-15 38 -110 68q-134 42 -158 55
q-78 41 -72 114q14 38 40 58l18 14l26 -25q-15 -10 -31 -19q-26 -21 -22 -41q7 -33 117 -65q148 -43 178 -68q43 -35 54 -89q4 -19 4 -36q0 -70 -65 -111z" />
    <glyph glyph-name="I" unicode="I" horiz-adv-x="540" 
d="M367 536q46 1 80.5 -23t41.5 -68q5 -30 -9 -82q-11 -42 -28 -60q45 -57 45 -110q0 -64 -47 -102q-43 -35 -109 -33q-50 1 -92 29q-27 18 -72 65q-81 85 -152 340l34 -18q4 -9 18 -48q24 -66 83 -168q21 -36 65 -71q65 -51 120 -51q39 0 69 18q35 20 41 56q2 12 2 17
q-1 25 -30 48q-20 -20 -46 -20q-38 0 -54 30q-8 15 -8 30q0 25 17 44.5t42 19.5q23 0 41 -11q36 19 36 55q0 8 -2 18q-9 45 -59 45t-85 -23q-28 -19 -33 -22q-18 -14 -27 -29q32 -20 32 -65q0 -39 -52 -39q-71 0 -70 74q0 26 10 44q28 52 84 81q52 28 114 29z" />
    <glyph glyph-name="J" unicode="J" horiz-adv-x="635" 
d="M586 449q-5 -61 -99 -154q33 -57 33 -105q-1 -70 -44 -98q-34 -22 -56.5 -28.5t-61.5 -5.5q-50 1 -94 31q-92 62 -145 187q-44 103 -73 212l31 -16q2 -1 18 -47q20 -58 54 -115l30 -50q9 -16 30 -36q83 -82 169 -82q83 0 98 64q4 17 1 31q-3 13 -11 23l-17 17
q-19 -23 -48 -23q-44 0 -54 28q-7 19 -7 34q0 32 29 51q12 8 30 8q22 0 42 -9q38 20 38 57q0 7 -2 17q-8 42 -57 42q-18 0 -50 -6q-36 -7 -45 -15q-26 -15 -27 -17q-15 -13 -29 -36q27 -18 28 -48q2 -55 -49 -55q-56 0 -67 50q-3 16 -3 31q0 75 87 120q53 27 119 27
q40 0 75.5 -22t43.5 -59q6 -30 -10 -67q-12 -27 -20 -30l12 -2q16 14 44 61q20 34 20 61q0 72 -136 102q-197 43 -216 132q-2 12 -2 23q0 56 66 89q26 -23 28 -29q0 -2 -1 -2q-12 -3 -28 -19.5t-12 -27.5q1 -34 43 -53q7 -2 101 -34q153 -52 181 -123q16 -41 13 -84z" />
    <glyph glyph-name="K" unicode="K" horiz-adv-x="571" 
d="M615 508h-267v-38q4 2 10 2q58 0 110 -51q49 -48 62 -107q5 -24 5 -42q0 -38 -21 -66q-23 -31 -60 -31q-25 0 -45 18t-20 43q0 28 28 51q16 5 29 5q22 0 37.5 -13t13.5 -13q1 2 1 9q0 12 -2 22q-7 33 -37 63q-48 48 -112 42v-399l-18 18l-15 44q-10 28 -44 69t-61 57
q-58 36 -122 43l-69 85q39 32 93 64q99 58 189 86v39h-306l-51 50h623zM298 139v262q-71 -27 -115 -55q-1 -1 -64 -45q121 -52 179 -162z" />
    <glyph glyph-name="L" unicode="L" horiz-adv-x="486" 
d="M541 508h-127v-505l-13 14l-14 29q-66 169 -251 189l-83 103q20 -5 42 -5q79 0 140 42q40 27 37 56q-2 28 -25 47l-31 -32q-27 -21 -80 -38q-28 -9 -48 -9q-26 0 -47.5 16t-24.5 41t11.5 45.5t39.5 19.5q46 -1 48 -45q8 -1 32 10q11 5 75 68l51 -44q20 -18 42 -56
q9 -16 9 -39q0 -60 -61 -105q-26 -19 -49 -25q101 -50 151 -137v501l29 -18q-1 -8 2.5 -30.5t6.5 -28.5q6 -11 26 -14h61z" />
    <glyph glyph-name="M" unicode="M" horiz-adv-x="485" 
d="M535 508h-130v-522l-57 60l4 270q1 35 -25 83.5t-55 69.5q-33 24 -64 24q-82 0 -114 -75q20 9 54 9q89 0 99 -80q8 -58 -92 -165l-58 65q9 8 56.5 57t47.5 65q-1 22 -27 22q-11 0 -47.5 -21t-50.5 -21q-9 0 -17 5q-39 25 -39 66q0 30 20.5 64t46.5 49q32 19 78 19
q150 0 186 -117l22 -72q-2 43 -10 151q-4 53 -4 139l30 -29q-9 -18 7 -53q4 -9 23 -13q33 1 66 0z" />
    <glyph glyph-name="N" unicode="N" horiz-adv-x="471" 
d="M515 508h-119v-510l-24 24l-21 52q-19 46 -65.5 81.5t-96.5 41.5q-41 5 -54 4l-66 68q33 36 103 100q-18 -9 -37 -9q-25 0 -57 18q-35 20 -38 42q-7 19 -7 34q0 25 15 54h-51l-49 50h518zM345 132v376h-166q-39 5 -59 -41q-7 -17 -4 -32q9 -40 54 -41q49 -1 77 40l54 -53
q-58 -36 -123 -115q23 -9 65 -29q62 -37 102 -105z" />
    <glyph glyph-name="O" unicode="O" horiz-adv-x="457" 
d="M440 162q-5 -69 -45.5 -107.5t-109.5 -38.5q-68 0 -127.5 44t-83.5 110q-13 17 -39 105q-11 35 -18 91l-9 68l26 -20q17 -80 26 -103q4 -12 25 -58q70 -156 190 -156q49 0 83.5 24.5t39.5 71.5q3 31 -29 65q-15 -22 -56 -51q-44 -32 -66 -32q-21 0 -43 18q-42 34 -46 67
v121q-38 30 -107 95q-17 16 -30 39l74 20l41 -77q1 -2 24 -25l1 -1q14 36 29.5 53.5t48.5 35.5q19 10 46 10q71 0 85 -46q6 -20 6 -40q0 -44 -37 -67q-31 -20 -77 -20q-42 0 -58 13v-90q0 -36 31 -35q18 1 37 16l29 29q23 23 34 48q50 -19 79.5 -70.5t25.5 -106.5zM315 481
q-12 0 -38 -9q-50 -17 -65 -64q9 -13 54 -4q24 5 45 19q26 17 26 38q0 20 -22 20z" />
    <glyph glyph-name="P" unicode="P" horiz-adv-x="408" 
d="M456 508h-337q-1 -6 4 -24.5t10 -17.5q12 -18 48 -44q21 -15 66 -29q59 -18 73 -25q44 -21 44 -68q0 -60 -38 -117q-90 -135 -172 -135q-27 0 -55 33.5t-28 60.5v366h-72l-49 50h455zM285 302q-22 7 -61 25q-74 46 -104 99v-283q0 -28 21 -28q39 0 112 86q34 40 34 80
q0 11 -2 21z" />
    <glyph glyph-name="Q" unicode="Q" horiz-adv-x="452" 
d="M487 -76q-101 105 -214 142q-54 18 -78 24q-37 10 -80 14l-49 92q38 -12 73 -13q8 0 74 4q32 2 72 27.5t58 53.5q23 35 23 64q1 52 -68 52q-12 0 -12 -4q4 -11 4 -22q0 -54 -91 -105q-36 -20 -64 -20t-52 18.5t-24 45.5v211h-62l-46 50h501l49 -50h-396q15 -30 18 -34
q40 -40 99 -40q11 0 32 3.5t32 3.5q54 0 92 -44t38 -98q0 -81 -100 -141q-20 -9 -54 -26l84 -45q49 -26 135 -124zM220 379q-18 4 -65 27q-30 20 -47 44v-144q0 -30 22 -26q20 4 45 23q46 35 45 76z" />
    <glyph glyph-name="R" unicode="R" horiz-adv-x="592" 
d="M642 508h-311q-11 -4 -31 -17q-8 -7 -8 -15q0 -23 50 -39q42 -13 68 -11q24 2 90 24l75 -77q-21 -20 -45 -63q-32 -57 -33 -102q-5 -33 -5 -60q0 -26 5 -48q10 -43 33 -95q-1 -1 -3 -1q-6 0 -26 5.5t-21 8.5q-3 15 -22 93q-17 71 -17 109q0 66 31 147q-48 0 -102 14
q-67 17 -89 45q-3 5 -29 38q-2 1 -4 1q-21 0 -50 -46.5t-29 -69.5q0 -34 37 -34q19 0 84 33q20 10 24 11q4 0 7 -3q6 2 30 -28q33 -41 41 -79q7 -32 -2 -63q-18 -62 -73 -89q-27 -13 -58 -13q-86 0 -151 84q-28 36 -52 106q-19 55 -19 193q24 -12 28 -16q-3 -53 8 -94
q15 -56 23 -74q27 -62 93 -102q27 -16 58 -14q39 3 71 17q42 20 42 52q0 13 -7 24q-5 17 -20 17q-5 0 -12 -3q-48 -21 -79 -21q-26 0 -50 12q-51 34 -62 87q-8 38 4 70q8 21 37 57q9 9 27 29h-198l-50 50h643z" />
    <glyph glyph-name="S" unicode="S" horiz-adv-x="568" 
d="M613 508h-123v-439l-24 24l-15 44q-25 75 -96 108v-235l-22 23l-19 45q-9 21 -35 56q-75 100 -187 110l-67 84q129 95 282 155v25h-308l-49 50h405v-256q43 -27 83 -86v435l24 -20l5 -32q0 -13 9 -31q6 -6 22 -9q10 -2 65 -1zM307 142v263q-45 -16 -122 -61
q-25 -15 -53 -35q116 -53 175 -167z" />
    <glyph glyph-name="T" unicode="T" horiz-adv-x="772" 
d="M675 86q-63 0 -143 78l-45 43v-210l-24 25q-7 28 -30 73q-24 26 -71 26q-23 0 -82 -8q-51 -7 -82 -4q-97 9 -134 79q-24 45 -23 101q0 34 9 65q18 66 29 66q2 0 4 -3l20 -20q-21 -31 -23 -45q-4 -29 -4 -43q-2 -96 103 -117q44 -9 93 -6q83 5 130 -21l36 -28v328
q0 34 -29 34q-28 0 -84 -53q-38 -36 -49 -80q21 3 27 3q20 0 31 -17t11 -38q0 -20 -12.5 -37.5t-31.5 -19.5q-10 -1 -21 -1q-54 0 -75 41q-12 23 -10 52q6 93 96 160q67 50 114 46q23 -10 61 -36q21 -24 21 -41v-112q5 26 48 74q57 64 108 64q36 0 67 -32q39 -33 39 -81
t-41 -92q47 -39 47 -105q0 -43 -18 -73q-22 -35 -62 -35zM705 183q12 15 12 28q0 14 -31 45l-22 -12q-18 -10 -32 -9q-24 1 -41.5 15.5t-18.5 37.5t18 39t43 16q15 0 32 -6l19 -7q13 21 15 26q7 14 8 28q1 21 -17 35.5t-40 14.5q-34 0 -74 -28q-35 -24 -59 -56
q-28 -37 -28 -64q0 -34 32 -69q27 -30 62 -48q24 -12 56 -12q46 0 66 26z" />
    <glyph glyph-name="U" unicode="U" horiz-adv-x="424" 
d="M468 508h-363v-335q0 -36 39 -36q51 0 119 87q23 29 27 63q-7 -2 -15 -2q-21 0 -40 12t-23 32q-3 15 1 29q14 51 66 51q44 0 70 -44q15 -26 14 -58q-4 -87 -52 -137q-94 -97 -145 -97q-33 0 -53 13q-37 24 -52 76q-4 14 -4 71v275h-79l-41 50h376q0 16 1 28q-4 24 -26 35
t-47 8q-36 0 -99 -5q-25 -2 -35 -2q-57 0 -102 27q-52 32 -52 85q0 26 16 46q1 4 10 8t11 2q2 -7 2 -18q-12 -12 -12 -26q0 -37 47 -51q21 -6 34 -5q50 4 54 4q-10 0 45 4q32 2 58 1q52 -3 81 -20q70 -42 62 -118h57z" />
    <glyph glyph-name="V" unicode="V" horiz-adv-x="405" 
d="M458 508h-212q44 -47 79 -136q29 -74 25 -133q-5 -75 -48 -132q-49 -65 -121 -65q-75 0 -127 64q-29 35 -29 95q0 25 7 49q52 16 88 51q72 70 72 135q0 28 -11 71h-179l-52 51h200q4 0 4 4q-31 53 -71 137q-14 44 -12 67q5 57 53 97l59 -51q-37 -15 -50 -28
q-20 -20 -19 -55q2 -46 75 -142q13 -17 25 -29h191zM243 445q3 -18 3 -36q0 -83 -56 -156q-19 -25 -94 -65q-10 -5 -10 -27q0 -55 35 -67q26 -9 39 -9q30 0 81 37q63 46 63 155q0 93 -61 168z" />
    <glyph glyph-name="W" unicode="W" horiz-adv-x="523" 
d="M566 508h-319v-194q26 0 61 28q32 25 47 51q9 15 22 27q22 -9 42 -36q48 -63 48 -132q0 -125 -86 -170q-48 -25 -113 -20q-71 5 -119 62q-21 24 -58 94q-40 95 -50 185q0 2 -7 75l29 -16q6 -77 39 -158q37 -91 82 -123q17 -16 57 -27q22 -6 42 -6q84 0 129 66
q20 30 20 61q0 33 -28 63q-5 -17 -39 -48q-57 -52 -98 -52q-49 0 -69 65q-1 11 0 205h-197l-50 50h565z" />
    <glyph glyph-name="X" unicode="X" horiz-adv-x="415" 
d="M463 508h-341v-336q0 -34 29 -34q42 0 113 88q19 23 22 63q-7 -2 -15 -2q-21 0 -40 12.5t-23 32.5q-3 12 1 28q11 52 61 52q49 0 76 -50q12 -22 14 -57q3 -42 -12 -76q-10 -24 -43 -68q-43 -58 -118 -85q-11 -2 -20 -2q-21 0 -37 11q-45 32 -54 76q-4 19 -2 347h-74
l-49 50h461z" />
    <glyph glyph-name="Y" unicode="Y" horiz-adv-x="450" 
d="M501 508h-131v-507l-55 56l1 277q0 64 -46 113q-34 36 -74 41q-49 6 -81 -34q-22 -27 -24 -51q-3 -25 8 -56q13 -39 39 -39q6 0 4 5q-4 15 -4 27q0 39 47 39q38 0 55 -39q5 -12 5 -23q0 -33 -31.5 -52t-65.5 -16q-61 6 -95.5 51t-29.5 107q4 56 35 97.5t84 51.5
q21 4 37 4q20 0 34 -6q27 -15 32 -19q35 -25 60 -77l33 -68q-8 46 -16 131q-4 43 -1 134l18 -20q9 -10 11 -19q7 -33 23 -44l20 -14h58z" />
    <glyph glyph-name="Z" unicode="Z" horiz-adv-x="570" 
d="M623 508h-626l-50 50h623zM505 317q10 -31 10 -63q0 -93 -80 -140q-59 -34 -113 -33q-28 1 -61 12q-36 12 -55 29q-22 20 -52 60q-42 56 -58 96q-49 121 -72 201l29 -12q29 -70 46 -105q28 -60 56 -99q70 -99 176 -99q49 0 101 44q40 34 40 81q0 38 -23 71q-25 37 -62 37
q-12 0 -33 -5q19 -23 19 -57q-1 -71 -78 -71q-67 0 -82 70q-3 14 -3 25q0 46 36 75.5t82 29.5q18 0 45 -6q94 -21 132 -141z" />
    <glyph glyph-name="bracketleft" unicode="[" horiz-adv-x="183" 
d="M134 680h-69v-666h56v-50h-108v761h121v-45z" />
    <glyph glyph-name="backslash" unicode="\" horiz-adv-x="366" 
d="M325 80q4 -22 4 -26q-1 -34 -39 -34q-28 0 -47 37q-14 27 -14 44q0 5 2 9v366l4 11q-4 -13 -22 -13q-25 0 -33 19q-4 14 -4 25q0 35 38 35q24 0 47 -36q16 -25 16 -44q0 -6 -2 -11v-380l-4 4q3 12 22 12q25 0 32 -18zM209 68q3 -13 3 -22q0 -37 -43 -37q-28 0 -44 34
q-13 27 -13 58v383l3 -1q-5 -11 -22 -11q-27 0 -34 20q-4 12 -4 23q0 34 40 34q24 0 46.5 -35.5t14.5 -56.5l-2 -380q4 11 21 11q25 0 34 -20z" />
    <glyph glyph-name="bracketright" unicode="]" horiz-adv-x="203" 
d="M168 703v-755h-109v51h51v659h-66v45h124z" />
    <glyph glyph-name="asciicircum" unicode="^" 
d="M-85 34l-33 15q-46 115 -152 115l-34 91q7 6 177 114q14 15 42 35v-370zM-129 128v167q-33 -27 -75 -52q-22 -13 -30 -20q36 -8 67 -45q1 -2 38 -50z" />
    <glyph glyph-name="underscore" unicode="_" horiz-adv-x="477" 
d="M523 508h-117v-512l-31 43l-29 44q-46 69 -142 108q-40 16 -91 14l-79 104l29 -1q17 4 36 7q32 5 80 31q82 45 82 97q0 27 -18 45t-45 18q-11 0 -23 -5q-54 -22 -62 -40q26 -29 26 -51t-19.5 -37t-42.5 -15q-52 0 -64 54q-5 23 6 50q19 47 68 73q46 25 99 23
q52 -2 88 -42.5t36 -93.5q0 -90 -118 -163l58 -35q28 -18 56 -45q38 -37 51 -62v534l27 -32l2 -9q3 -40 20 -49q29 1 66 0z" />
    <glyph glyph-name="grave" unicode="`" horiz-adv-x="456" 
d="M511 508h-406v-211q6 3 35 29l53 46q52 42 136 75l87 -65q-67 -130 -67 -236q0 -23 3 -45q-1 -11 15 -107l-34 17l-13 60q-16 74 -16 145q0 68 15 131q-60 -21 -98 -55q-75 -66 -103 -139l-67 69v286h-51l-51 50h511z" />
    <glyph glyph-name="a" unicode="a" horiz-adv-x="449" 
d="M501 508h-125v-526l-13 24l-21 51q-10 24 -43 60t-57 51q-43 28 -66 37q-30 12 -78 17l-59 79l110 80q20 14 16 14q-69 0 -92 46q-12 24 -12 43q0 46 37 67q27 15 54 13q52 -5 53 -40q0 -19 -10 -28q-10 -14 -37 -11q-12 1 -30 12q-7 -5 -8 -28q0 -22 21 -37t44 -15
q8 0 15 2q2 2 14 7l112 66v66h125zM326 129v272q-87 -34 -179 -115q118 -55 179 -157z" />
    <glyph glyph-name="b" unicode="b" horiz-adv-x="448" 
d="M506 508h-127v-522l-19 25q5 32 -15 107q-18 67 -37 105q-21 44 -57 76q-43 38 -85 36q-8 0 -8 -3l16 -23q10 -15 14 -32q8 -37 -10.5 -59.5t-55.5 -22.5q-81 0 -93 72q-2 12 -2 23q0 49 36 81t85 32q90 0 156 -115q25 -44 25 -47v267h-341l-50 50h516z" />
    <glyph glyph-name="c" unicode="c" horiz-adv-x="535" 
d="M588 508h-126l-1 -507q-13 9 -54 52l7 258q-11 34 -20 52q-16 31 -37 44l-169 -171l-73 27l43 46q13 14 7 44q-8 35 -31 34q-6 0 -62 -19q-14 -3 -28 11.5t-14 28.5q0 12 9 27q68 113 183 115q60 1 110 -38q46 -35 72 -93q28 -62 30 -79l-17 135l-6 158l27 -20q1 -2 3 -5
q2 -27 14 -39l18 -11q3 1 31 1q30 0 35 -1zM315 460q-4 5 -29 24q-16 12 -46 12q-81 0 -113 -64q34 2 50 -20q21 -29 22 -57q0 -8 -2 -12z" />
    <glyph glyph-name="d" unicode="d" horiz-adv-x="585" 
d="M631 508h-491q77 -56 133 -135l-54 -45q-14 -11 -69 -58q48 -16 97.5 -57.5t76.5 -87.5v344q13 6 37 6q122 0 167 -89q13 -26 17 -45q10 -50 -9 -83q-22 -38 -72 -38q-25 0 -41.5 18t-16.5 43q0 33 36 44q29 9 53 -12l-2 2q2 -1 10 -6q2 -1 4 -1q5 0 5 12q0 26 -19 47
t-45 25q-38 6 -56 6t-18 -6v-392l-20 18q-12 25 -46 78q-83 107 -204 110l-58 83q44 47 98 91l43 35q-17 14 -42 30q-30 3 -74 14q-26 14 -32 20l-11 11l-26 18l-50 50h629z" />
    <glyph glyph-name="e" unicode="e" horiz-adv-x="444" 
d="M492 508h-123v-517l-26 38q-44 109 -131 160q-62 36 -126 41l-64 91q71 51 123 78q100 51 175 75v34h-323l-49 50h495zM320 131v263q-89 -31 -193 -100q129 -56 193 -163z" />
    <glyph glyph-name="f" unicode="f" horiz-adv-x="532" 
d="M584 508h-582l-51 50h581zM507 290q-1 -107 -70 -166q-20 -17 -29 -24q-15 -11 -32 -15q-41 -10 -65 -10q-66 0 -119 38q-22 16 -51 53q-47 60 -79 141q-11 27 -51 154l32 -10q44 -152 134 -237q60 -56 143 -56q86 0 131 95q12 25 4 61q-9 45 -25 45q-3 0 -28 -31
q-18 -23 -72 -41q-18 -6 -50 -7q-60 -2 -102 43q-18 19 -18 59q0 39 24.5 60t63.5 18q24 -2 40 -19t16 -41q0 -20 -21 -50q0 -2 2 -2q23 0 70 47q29 29 40 59q1 2 3 2q16 0 61 -60q49 -65 48 -106z" />
    <glyph glyph-name="g" unicode="g" horiz-adv-x="472" 
d="M524 508h-132v-512l-21 23q-3 12 -13 45q-16 54 -44 78q-54 48 -78 56l1 -1q1 -6 -30 -29q-24 -18 -56 -18q-42 0 -61 21q-11 12 -16 20q0 7 -3.5 20.5t-3.5 20.5q0 42 31 66q27 21 71 21q32 0 37 -9q-2 68 -53 104q-11 8 -65 24q-47 14 -51 20q-11 7 -28 28l-11 22
l-50 50h525zM344 159v347h-232q67 -55 90 -78q33 -34 43 -73q17 -70 14 -96q30 -31 85 -100z" />
    <glyph glyph-name="h" unicode="h" horiz-adv-x="445" 
d="M500 508h-128v-513l-22 22q-21 46 -34 67q-20 31 -56 64q-39 34 -71 45.5t-88 13.5l-68 84q48 49 92 84l58 46q-19 13 -35 22q-11 6 -73 22q-49 12 -63 26l-14 17l-50 50h501zM322 126v382h-192q20 -10 56 -37q17 -13 73 -78q-14 -16 -53 -51q-15 -11 -67 -70
q113 -36 183 -146z" />
    <glyph glyph-name="i" unicode="i" horiz-adv-x="430" 
d="M474 508h-117v-507l-19 18l-45 83q-31 56 -91.5 92.5t-126.5 40.5l-65 89q150 106 297 151v33h-306l-51 50h473zM167 42q-18 0 -33.5 12.5t-19.5 30.5q-5 22 9.5 41t37.5 19q18 0 33 -12t19 -29q5 -22 -9 -42t-37 -20zM307 124v277q-57 -19 -111 -47q-28 -15 -83 -55
q137 -57 194 -175z" />
    <glyph glyph-name="j" unicode="j" horiz-adv-x="516" 
d="M561 508h-124v-513l-52 49v277q0 25 -22.5 46t-47.5 18q-17 -2 -26.5 -19.5t-6.5 -35.5l4 -25l-21 -8q2 5 -10 24q-20 32 -28 38q-27 27 -71 27q-36 0 -63.5 -25.5t-27.5 -61.5q0 -60 66 -71q-15 19 -15 39q0 23 16.5 38.5t40.5 15.5q36 1 53 -43q14 -36 8 -50
q-20 -48 -75 -48q-51 0 -89 27.5t-48 75.5q-4 19 -4 39q0 51 28 92q31 45 80 46q53 1 93 -39l18 -23q0 17 22 38.5t39 20.5q29 -2 47 -18q8 -11 17 -22q14 -14 25 -47v138h-388l-52 51h562z" />
    <glyph glyph-name="k" unicode="k" horiz-adv-x="521" 
d="M563 508h-114v-512l-52 51l4 312q0 22 -31 68q-36 53 -66 50q-17 -2 -34 -13t-17 -26q36 -27 44 -35q38 -37 30 -76q-2 -9 -5 -21q-12 -31 -58 -31q-44 0 -75 52q-17 -41 -63 -56q-9 -3 -17 -3q-43 0 -58 52q-3 10 -3 21q0 38 41 77q5 5 26 21q10 8 19 9q-6 15 -28 42
q-23 18 -44 18l-62 -1l-50 50h103q35 0 61 -19l24 -23q22 -21 28 -51q13 31 27 46q27 30 73 44q17 5 22 5q20 0 60 -50q10 -13 39.5 -60t32.5 -58l-14 162l-5 94q14 -12 31 -30q6 -8 6 -19q1 -17 2 -18q8 -16 30 -22h43z" />
    <glyph glyph-name="l" unicode="l" horiz-adv-x="449" 
d="M491 508h-116v-507l-20 22q-37 79 -99 129q-69 57 -150 58l-67 87l77 69q10 9 74 59q-12 7 -38 15q-13 4 -50 2t-52 4q-25 10 -37 42q0 6 -12 19l-15 15l-35 36h491zM326 349v159h-194l61 -44q34 -27 54 -53q31 -21 79 -62zM325 130v166q-77 71 -80 69q-33 -20 -98 -90
q29 -11 80 -48q61 -44 98 -97z" />
    <glyph glyph-name="m" unicode="m" horiz-adv-x="509" 
d="M556 508h-122v-513l-49 57l-1 230q-4 20 -27 39t-43 19q-29 0 -52 -34q-81 -122 -103 -126q-6 -1 -18 -1q-35 0 -40 9q-21 3 -55 63l-20 37l33 32q1 -10 11 -30t17 -27q10 -10 20 -10q17 0 48 42l43 58q-3 34 -8 49q-20 60 -83 62q-45 2 -56 5q-21 6 -42 38l-14 7l-45 44
h556zM385 331v177h-226l28 -23q36 -30 36 -86q0 -10 -2 -19q8 2 32 20t35 18q18 0 43 -22q14 -13 54 -65z" />
    <glyph glyph-name="n" unicode="n" horiz-adv-x="441" 
d="M478 -84q-10 12 -23 26q-61 67 -181 137q-93 54 -192 72l-55 135q68 -46 150 -46q81 0 143 60q16 16 17 37q1 34 -27 54t-63 20q-13 0 -21 -4q-1 -36 -44 -74q-22 -20 -51 -20q-50 0 -59 47q-5 25 21 58q16 20 43 31l48 19q2 1 2 4q0 9 -16 21.5t-26 14.5h-144l-52 50
h492l49 -50h-274q2 -7 7 -21l14 -21l-1 1q3 4 47 -13q78 -31 95 -110q6 -26 1 -47q-15 -63 -73 -96l-67 -34q0 -3 20 -14l37 -20q54 -33 96 -77l68 -72z" />
    <glyph glyph-name="o" unicode="o" horiz-adv-x="524" 
d="M576 508h-327v-132q0 -68 13 -68q49 11 104 84q24 32 30 32q5 0 9 -5q80 -68 80 -172q0 -116 -78 -171q-45 -32 -108 -32q-90 0 -143 59q-26 29 -71 118q-38 75 -51 185q0 2 -7 75l30 -16q6 -77 36 -153q68 -173 195 -173q39 0 78 20t57 52t20 52q4 35 -24 69
q-6 -20 -81 -76q-30 -22 -58 -22q-57 0 -77 75q-3 11 -3 47v152h-199l-51 50h575zM341 -81q-16 -33 -49 -33q-48 0 -58 45q-5 21 6 42q17 33 50 33q47 0 57 -45q4 -21 -6 -42z" />
    <glyph glyph-name="p" unicode="p" horiz-adv-x="421" 
d="M464 508h-335v-326q0 -31 24 -31q40 0 113 92q16 20 19 57q-7 -2 -15 -2q-52 0 -62 44q-3 13 1 29q13 52 59 52q47 0 74 -45q19 -32 17 -63q-3 -48 -13.5 -77t-40.5 -65q-72 -87 -136 -87q-62 0 -89 86q-5 16 -5 71v265h-75l-49 50h463zM235 -55q-16 -42 -55 -42
q-20 0 -36 12.5t-20 31.5q-4 20 4 40q17 42 55 42q47 0 56 -44q4 -19 -4 -40z" />
    <glyph glyph-name="q" unicode="q" horiz-adv-x="450" 
d="M503 508h-130v-516l-21 23l-22 46q-19 39 -60 78.5t-80 54.5q-29 11 -87 14l-67 85q50 50 93 85l55 43q-16 17 -21 19q-27 16 -75 21q-60 6 -87 44l-53 53h503zM175 27q-19 0 -35 12.5t-20 30.5q-5 24 9.5 43.5t39.5 19.5q19 0 35 -12t20 -30q5 -23 -10 -43.5t-39 -20.5z
M323 123v385h-182q23 -15 51 -39q9 -8 69 -78q-19 -21 -52 -49q-19 -16 -67 -72q31 -10 51 -21q81 -44 130 -126z" />
    <glyph glyph-name="r" unicode="r" horiz-adv-x="357" 
d="M386 19l-40 12q14 17 12 41q-4 41 -49 70q-24 15 -89 39q-179 65 -206 190q-4 17 -4 33q0 88 85 141q27 17 66 19q55 3 82 -13q51 -30 62 -80q6 -28 0 -54q-16 -69 -89 -69q-8 0 -20 1q-51 4 -85 55q-14 21 -21 67q-14 -1 -24.5 -25.5t-8.5 -39.5q10 -68 69 -97l78 -38
q40 -19 102 -53q84 -60 83 -162q0 -16 -3 -37zM199 500q-43 2 -63 -3q-2 -8 -2 -16q0 -36 45 -68q10 -7 25 -7q22 0 42 13t20 34q0 44 -67 47z" />
    <glyph glyph-name="s" unicode="s" horiz-adv-x="301" 
d="M223 335q-22 -25 -39 -31q-11 -4 -35 -4q-47 0 -81 35t-34 82q0 49 46 89q28 25 64 25q45 0 78 -36t33 -82q0 -42 -32 -78zM342 -58l-60 58q-57 56 -217 166v113q39 -31 113 -102q42 -40 164 -192v-43zM171 374q24 17 30 31q4 9 4 34q0 41 -33 41q-25 0 -61 -32
q-24 -21 -25 -62q-1 -37 29 -37q22 0 56 25z" />
    <glyph glyph-name="t" unicode="t" horiz-adv-x="313" 
d="M180 304q-47 0 -83 34t-36 80q0 51 54 92q31 24 67 24q46 0 77.5 -33.5t31.5 -79.5q0 -43 -33 -80t-78 -37zM179 13q-47 0 -81 34.5t-34 81.5q0 53 54 95q31 24 65 24q44 0 74.5 -35t30.5 -80q0 -38 -25 -73q-33 -47 -84 -47zM238 410q2 10 2 27q0 43 -37 43
q-33 0 -58 -27t-25 -60q0 -41 32 -41q19 0 51 20.5t35 37.5zM190 196q-32 0 -50 -25.5t-18 -59.5q0 -10 3 -24q6 -31 33 -31q31 0 54.5 25.5t23.5 56.5q0 58 -46 58z" />
    <glyph glyph-name="u" unicode="u" horiz-adv-x="0" 
d="M-193 788q8 12 24 12q32 0 32 -28q0 -7 -2 -11q-3 -26 -28 -30q-25 -5 -36 20q-8 20 10 37zM-69 746q0 -40 -28.5 -73t-68.5 -35q-76 -4 -122 98l-20 51q12 1 28 -2q14 -29 21 -40q13 -21 39 -36.5t49 -15.5q8 0 16 3q29 4 45 30q6 10 21 52q1 1 2 1q18 0 18 -33z" />
    <glyph glyph-name="v" unicode="v" horiz-adv-x="202" 
d="M250 508h-125v-525l-48 52v375q0 33 -14 53q-32 46 -80 46q-6 0 -13 -1l-51 50q45 5 79 0q53 -8 76 -68q8 -16 23 -61q-12 55 -19 138q-3 35 -3 81l20 -16q4 -30 14 -54q5 -8 16 -20h75z" />
    <glyph glyph-name="w" unicode="w" horiz-adv-x="190" 
d="M520 612l-85 64q-77 58 -175 58q-55 0 -96 -27l-24 -16q-9 -9 -23 -27q-38 -49 -34 -63l19 -43h93l50 -50h-126v-507l-51 49l1 458h-74l-50 50h129l-44 47q-7 8 -7 23q1 27 10 42q26 42 37 53q28 29 79 53q27 13 65 13q96 0 206 -68q34 -21 89 -77z" />
    <glyph glyph-name="x" unicode="x" horiz-adv-x="202" 
d="M250 508h-140v-513l-49 50v463h-63l-54 50h123l-8 38q-5 24 -43 75q-25 33 -59 51q-77 40 -173 40q-89 0 -133 -35q-5 -4 -5 -13q0 -23 47 -25q103 -4 121 -6q79 -11 101 -48q14 -24 15 -53q0 -17 -4 -30h-53q24 19 24 35q0 8 -7 17q-13 17 -75 20l-82 4q-35 2 -79 29
q-35 22 -35 62q0 25 17 39q24 20 35 25q33 16 100 28q17 3 32 3q49 0 126 -25q34 -11 82 -50q26 -21 51.5 -61t34.5 -73l13 -47h90z" />
    <glyph glyph-name="y" unicode="y" horiz-adv-x="0" 
d="M35 -168q1 -1 0 -5q-2 -5 -6 -5q-3 0 -6 4q-26 36 -93 91q-41 33 -43 30q-36 -33 -43 -38q-20 -14 -46 -14q-33 0 -59 14q-30 16 -34 46q-5 39 22 64t66 25q30 0 72 -27q7 -3 8 13q0 5 -2 38q-1 7 -1 29q1 1 2 1q14 0 29 -30q13 -25 15 -43q-2 -8 -2 -17q0 -11 3 -25
q32 -23 47 -42q59 -52 71 -109zM-160 -21q-12 18 -48 16q-44 -2 -44 -27t29 -25q17 0 40 10q28 12 23 26z" />
    <glyph glyph-name="z" unicode="z" horiz-adv-x="0" 
d="M-81 -207q-26 48 -90 109q-23 21 -61 42q-32 -51 -70 -58q-16 -3 -31 -3q-33 0 -59 19q-12 12 -15 16q-11 15 -11 34q0 36 30 59q27 21 64 21q25 0 68 -23q5 -3 7 7q1 6 1 13q0 13 -4 39q2 6 4 18q23 -16 29 -54q-1 -17 1 -45q16 -10 46 -32q61 -55 74 -84q14 -19 15 -26
q5 -38 2 -52zM-324 -11q-18 1 -33.5 -8t-15.5 -26q1 -23 27 -23t52 19q17 12 17 20q-3 15 -47 18z" />
    <glyph glyph-name="braceleft" unicode="{" horiz-adv-x="480" 
d="M341 682q-83 -18 -83 -123v-174q0 -53 -15 -81q-19 -34 -66 -47q53 -14 69 -51q12 -27 12 -85v-164q0 -104 83 -122q-88 -2 -121.5 29.5t-33.5 118.5v159q0 53 -12 74q-16 28 -64 41q43 13 61 41q15 25 15 72v175q0 80 39 111q34 27 116 26z" />
    <glyph glyph-name="bar" unicode="|" horiz-adv-x="464" 
d="M342 514l45 -46v-483l-45 45v484z" />
    <glyph glyph-name="braceright" unicode="}" horiz-adv-x="480" 
d="M370 257q-47 -13 -63 -40q-13 -23 -13 -75v-159q0 -87 -34 -118.5t-121 -29.5q83 18 83 122v164q0 60 12 85q18 37 69 51q-49 13 -67 46q-14 27 -14 82v174q0 101 -83 123h29q126 0 126 -137v-175q0 -48 16 -74t60 -39z" />
    <glyph glyph-name="asciitilde" unicode="~" horiz-adv-x="0" 
d="M74 -230l-139 121q-23 -17 -54 -25q-28 -7 -53 0q-42 12 -56 38q-11 21 -11 40q0 15 7 31q18 42 65 54q27 7 55 -1l3 59q36 -26 36 -81q0 -15 -7 -15q-13 6 -29 6q-28 0 -65 -20q-19 -10 -22 -41q0 -9 6 -13q23 -15 65 -5q31 8 54 22l140 -118q7 -35 7 -33q0 -8 -2 -19z
" />
    <glyph glyph-name="quotesinglbase" unicode="&#x201a;" horiz-adv-x="0" 
d="M-57 -230l-139 121q-23 -17 -54 -25q-28 -7 -53 0q-42 12 -56 38q-11 21 -11 40q0 15 7 31q18 42 65 54q27 7 55 -1l3 59q36 -26 36 -81q0 -15 -7 -15q-13 6 -29 6q-28 0 -65 -20q-19 -10 -22 -41q0 -9 6 -13q23 -15 65 -5q31 8 54 22l140 -118q7 -35 7 -33q0 -8 -2 -19z
" />
    <glyph glyph-name="florin" unicode="&#x192;" horiz-adv-x="114" 
d="M167 508h-181l-51 50h181zM75 -15l-58 37q-8 47 -12 104q-2 28 1 119q2 61 -8 61q-11 0 -46.5 -16t-44.5 -16q-2 0 -2 1v74l82 29q6 1 11 1q6 0 8 -1q30 -15 45 -40q5 -10 11 -27q0 -8 -4 -42q-9 -75 -9 -103q0 -76 26 -181z" />
    <glyph glyph-name="quotedblbase" unicode="&#x201e;" horiz-adv-x="0" 
d="M-24 -273q-12 18 -60 56q-24 19 -139 89l-54 33l145 106l18 50l41 -81l-110 -78q50 -34 132 -98q23 -22 24 -40z" />
    <glyph glyph-name="ellipsis" unicode="&#x2026;" horiz-adv-x="0" 
d="M-142 -287q-9 14 -58 50q-30 22 -146 90l-53 31l146 107l18 50l41 -81l-113 -80q22 -13 59 -41l42 -32l35 -24q19 -17 22 -34z" />
    <glyph glyph-name="dagger" unicode="&#x2020;" horiz-adv-x="298" 
d="M306 508q-73 -7 -131 -67q-54 -55 -71 -130q-10 -45 -10 -82q0 -27 11 -71q26 -105 105 -105q4 0 2 2q-23 13 -29 44q0 33 21 50q11 9 45 9q20 2 37 -18t17 -41q0 -36 -25.5 -61t-61.5 -25q-47 0 -77 25q-94 77 -94 221q0 24 3 50q12 116 99 198q54 51 109 51z" />
    <glyph glyph-name="daggerdbl" unicode="&#x2021;" horiz-adv-x="295" 
d="M344 509q-36 -1 -81.5 -19t-73.5 -41q-75 -63 -88 -164q-11 -84 -2 -124q15 -67 77 -106q6 -4 21 -4q14 0 12 4q-6 0 -17 18t-12 26q-6 36 32 57q14 8 28 8q18 0 28 -11q32 -16 32 -55q0 -35 -27 -58.5t-62 -23.5q-47 0 -76 24q-65 54 -84 144q-8 37 -8 74q0 131 101 250
h-151l-50 50h352z" />
    <glyph glyph-name="circumflex" unicode="&#x2c6;" horiz-adv-x="263" 
d="M279 508q-21 0 -40 -8q-77 -33 -111 -67q-42 -42 -59 -123q-10 -48 -10 -83q0 -29 6 -52q2 -5 7 -21q31 -96 108 -101q-6 0 -19 21q-6 10 -13 27q0 30 22 49q11 10 46 8q26 -1 44 -32q10 -18 11 -34q0 -15 -9 -30q-33 -33 -76 -36q-5 -1 -11 -1q-28 0 -60.5 19.5
t-50.5 43.5q-52 71 -52 170q0 24 3 51q12 96 76 169l56 60q35 31 35 46q0 3 -1 5q1 4 1 8q0 18 -27 27q-23 8 -42 5q-4 0 -11 -1.5t-10 -1.5q-44 -2 -68 2q-37 6 -63.5 31.5t-27.5 62.5q11 28 24 55l17 -17q-17 -9 -17 -29q0 -34 40 -38q-14 0 52 2q5 0 17 1.5t19 1.5
q46 -2 76 -17q57 -29 67 -72q4 -18 2 -51z" />
    <glyph glyph-name="perthousand" unicode="&#x2030;" horiz-adv-x="289" 
d="M343 508q-5 3 -35 3q-15 0 -76 -14q-68 -35 -98 -68q-36 -41 -56 -119q-13 -52 -13 -95q0 -42 14 -81q17 -47 49.5 -63t44.5 -13q-20 29 -20 51q0 19 24 40q12 10 46 9q25 -1 42 -21.5t17 -45.5q0 -33 -29 -56t-63 -23q-46 0 -79 27q-91 75 -91 221q0 24 2 49
q9 93 100 199h-127l-49 50h230q5 5 13 14q1 5 0 11q-7 34 -42 39q-51 7 -114 17q-56 9 -81 58q-9 17 -9 34q10 24 21 47l17 -17q-12 -6 -12 -22q0 -26 18 -32q8 -5 14 -7q15 -5 55 -4q146 4 178 -82q8 -22 6 -56h54z" />
    <glyph glyph-name="Scaron" unicode="&#x160;" horiz-adv-x="219" 
d="M272 508h-139v-523l-55 54v469h-82l-50 50h132q12 13 12 31q0 36 -39 45q-16 3 -68 2q-91 -2 -115 0q-119 12 -136 91q-2 8 12 48t16 39l22 -19q-19 -14 -19 -35q1 -13 5 -27q8 -32 70 -32q-11 0 8 1l60 1q13 0 42 2q26 2 41 2q149 0 149 -117q0 -15 -3 -32h86z" />
    <glyph glyph-name="guilsinglleft" unicode="&#x2039;" horiz-adv-x="100" 
d="M-144 119v186q-23 -7 -75 -38q-20 -12 -56 -43l40 -22q12 -7 31 -23q37 -32 60 -60zM-99 371q10 1 46 -14q89 -36 105 -112q4 -19 4 -35q0 -32 -18 -57q-20 -28 -51 -28q-18 0 -31 13.5t-13 31.5q-1 24 21 42q14 5 26 5q11 0 27 -11q3 0 3 12q-1 28 -23 51q-34 36 -78 36
q-9 0 -17 -2v-324l-23 22l-19 47q-47 116 -191 116l-48 71l104 74l103 55q6 1 73 7zM-35 508l-49 50h180l49 -50h-180z" />
    <glyph glyph-name="OE" unicode="&#x152;" horiz-adv-x="100" 
d="M-126 282q12 17 41.5 31t51.5 14q13 0 24 -5q39 -18 48 -58q5 -25 -2 -55q-14 -57 -72 -56q-42 1 -50 40q-2 5 -2 10q0 44 60 44q22 0 19 -3q-1 15 -13.5 26t-27.5 11q-25 0 -57 -30q-12 -11 -19 -40q-5 -20 -5 -36q0 -6 1 -12v-203q-5 3 -20 14q-15 40 -21 50
q-12 19 -38 28q-9 1 -21 1q-24 0 -86 -8q-54 -7 -71 -5q-80 9 -107 85q-18 35 -12 92q2 23 26 70q-2 -2 21 -9q1 -4 -5 -32q-10 -48 -7 -58q24 -75 86 -75q58 0 91 2q49 3 78 -13l32 -23q3 -3 3 10v193q0 37 -2 43q-4 12 -29 12q-30 0 -67 -48q-4 -5 -12 -35q10 2 18 2
q45 0 45 -44q0 -14 -10 -29.5t-22 -21t-25 -5.5q-15 0 -43 14.5t-29 27.5q1 2 -4 12q-7 20 1 61q13 65 83 96q45 20 73 20q26 0 49 -19t25 -44q2 -21 3 -42zM-35 508l-49 50h180l49 -50h-180z" />
    <glyph glyph-name="quoteleft" unicode="&#x2018;" 
d="M-93 284q4 -14 4 -29q0 -22 -13.5 -42.5t-34.5 -24.5q57 -24 57 -87q0 -54 -37.5 -84.5t-92.5 -30.5q-13 0 -39 2q-52 4 -80 18q-73 37 -122 91q-70 76 -111 228l38 -20q2 -7 16 -44q52 -141 205 -189q54 -17 91 -17q71 0 83 64q1 7 0 14q-3 15 -21 22q-27 -27 -59 -27
q-27 0 -43 18.5t-16 45.5t18.5 49.5t44.5 22.5q17 0 36 -13q21 10 21 23q0 28 -80 28q-58 0 -81 -38q19 -11 25 -47q5 -30 -11.5 -48.5t-46.5 -18.5q-70 0 -70 77q0 27 11 46q43 74 144 80q37 2 91 -15q63 -20 73 -54z" />
    <glyph glyph-name="quoteright" unicode="&#x2019;" 
d="M-67 242q2 -9 2 -25q0 -87 -139 -152q-2 -1 3 -3q10 -4 17 -10q86 -52 156 -120l47 -46l7 -45q-77 77 -191 140q-65 36 -156 63l-50 15l-50 119q55 -39 144 -39q59 0 92 21q54 34 59 77q4 33 -13 53q-8 9 -28 9q-22 0 -34 -10q3 -45 -53 -84q-18 -13 -44 -13
q-27 0 -47 15.5t-17 41.5q2 22 30 58q15 19 90 42q21 3 40 3q112 0 135 -110z" />
    <glyph glyph-name="quotedblleft" unicode="&#x201c;" horiz-adv-x="650" 
d="M699 508h-404q-46 0 -78 24q-35 26 -35 71q0 35 24.5 62t59.5 27q36 0 60 -28l21 -66q-8 10 -35 31q-30 21 -39 21q-18 0 -30 -12.5t-12 -31.5q0 -47 75 -47h346zM702 421q27 -1 -553 -1q-46 0 -78 24q-35 26 -35 70q0 36 24.5 63t59.5 27q34 0 51 -28l10 -73
q-6 11 -25 34q-22 26 -29 26q-17 0 -29.5 -13.5t-12.5 -30.5q0 -47 75 -47l488 -1z" />
    <glyph glyph-name="quotedblright" unicode="&#x201d;" horiz-adv-x="268" 
d="M321 508h-202q7 -17 14 -42q12 -18 48 -44q21 -15 66 -29q59 -18 73 -25q44 -21 44 -68q0 -60 -38 -117q-90 -135 -172 -135q-27 0 -55 33.5t-28 60.5v366h-72l-49 50h320zM285 302q-22 7 -61 25q-74 46 -104 99v-283q0 -28 20 -28q40 0 113 86q34 40 34 80q0 11 -2 21z
" />
    <glyph glyph-name="bullet" unicode="&#x2022;" horiz-adv-x="270" 
d="M259 114q-88 0 -187 128q-21 27 -43 99q-10 34 -14 61l-9 68l26 -20q7 -37 19 -72q46 -136 166 -201q18 -10 39 -10q58 0 84 60q8 18 -4 46q-9 23 -25 41q-14 -20 -45 -45q-15 -12 -43 -12q-43 0 -70 27.5t-27 70.5q-1 59 16 105q8 21 22 48h-167l-49 50h323q84 0 99 -40
q9 -25 0 -52q-16 -48 -84 -48q-60 0 -82 32q-17 -40 -23 -58q-12 -38 -6 -64q6 -27 26 -27t52 24q14 10 34 50q73 -27 88 -97q5 -23 5 -43q0 -52 -34.5 -86.5t-86.5 -34.5zM220 470q0 -15 39 -20q69 -2 69 31t-39 33q-18 0 -42 -13q-28 -15 -27 -31z" />
    <glyph glyph-name="endash" unicode="&#x2013;" 
d="M-41 -305q1 -1 0 -5q-2 -5 -6 -5q-3 0 -6 4q-23 32 -97 63q-58 24 -63 24q-2 0 -3 -1q-14 -23 -44.5 -39.5t-56.5 -14.5q-33 -2 -59 12q-30 17 -34 48q-5 39 22 64t66 25q29 0 72 -27q4 -2 7 -2q8 0 6 28q-6 14 -10 36q1 2 4 2q16 0 29 -19t15 -37q-1 -17 -1 -33
q7 -19 39 -30q45 -16 55 -20q56 -32 65 -73zM-261 -197q-14 20 -62 18q-44 -2 -44 -25q0 -4 1 -9q3 -8 24 -13q17 -5 29 -5q15 0 34 10q23 11 18 24z" />
    <glyph glyph-name="emdash" unicode="&#x2014;" horiz-adv-x="381" 
d="M486 508h-237v-132q0 -68 13 -68q49 11 104 84q24 32 30 32q5 0 9 -5q80 -68 80 -172q0 -116 -78 -171q-45 -32 -108 -32q-90 0 -143 59q-26 29 -71 118q-38 75 -51 185q0 2 -7 75l30 -16q6 -77 36 -153q68 -173 195 -173q39 0 78 20t57 52t20 52q4 35 -24 69
q-6 -20 -81 -76q-30 -22 -58 -22q-57 0 -77 75q-3 11 -3 47v152h-199l-51 50h485zM341 -81q-16 -33 -49 -33q-48 0 -58 45q-5 21 6 42q17 33 50 33q47 0 57 -45q4 -21 -6 -42z" />
    <glyph glyph-name="tilde" unicode="&#x2dc;" horiz-adv-x="289" 
d="M416 382l-25 -53q-30 -64 -34 -112q-11 -35 -7 -84l5 -69q1 -21 12 -70l-34 17l-13 60q-17 78 -17 131q0 72 16 145q-60 -22 -98 -55q-78 -68 -103 -139l-67 69v286h-51l-51 50h345l51 -50h-240v-211q9 5 20 16q28 27 68 59q54 43 136 75z" />
    <glyph glyph-name="trademark" unicode="&#x2122;" horiz-adv-x="493" 
d="M547 508h-341v-135l74 56q11 9 41 31q6 3 26 11l44 -30l50 -37q-15 -13 -38 -43q-20 -49 -21 -97q0 -12 5 -28q-10 -3 -27 -6q-9 0 -17 1l-4 45v81q0 12 5 32q-43 -15 -65 -35l-40 -36q-20 -18 -29 -39l-51 61v168h-162l-50 50h551z" />
    <glyph glyph-name="scaron" unicode="&#x161;" horiz-adv-x="543" 
d="M401 322q-73 13 -70 25q-11 5 -42 34q-44 32 -68 34l-2 -4q18 -17 18 -36q-1 -23 -18 -45t-40 -22q-36 0 -58 32q-15 21 -7 54q15 68 87 68q42 0 81 -25q70 -45 73 -59q29 11 39.5 27t10.5 47q0 18 -15 43q-8 13 -29 13h-365l-52 50h601l51 -50h-167q5 0 16 -31
q17 -49 17 -62q0 -30 -30 -61z" />
    <glyph glyph-name="guilsinglright" unicode="&#x203a;" horiz-adv-x="200" 
d="M311 508h-13v-332l-47 49v49q-1 11 -8 33q-13 15 -17 21q-28 40 -63 40q-7 0 -11 -1q1 -2 2 -3q18 -11 18 -35q0 -23 -19.5 -38t-43.5 -15q-56 0 -65 42q-2 10 -2 23q0 40 28.5 67t68.5 27q39 0 67 -26q44 -40 47 -71v170h-255l-49 50h311z" />
    <glyph glyph-name="oe" unicode="&#x153;" 
d="M-68 -118l-26 21v17q-4 16 -12 35q-15 72 -83 121q-45 32 -88 32q-7 0 -20 -4q28 -24 34 -53q7 -33 -8.5 -58.5t-49.5 -25.5q-37 0 -60.5 21.5t-23.5 58.5q-1 54 32.5 83.5t87.5 29.5q83 0 149 -95q16 -23 23 -48v158l45 -38v-255z" />
    <glyph glyph-name="glyph121" horiz-adv-x="444" 
d="M492 508h-123v-517l-26 38q-44 109 -131 160q-62 36 -126 41l-64 91q71 51 123 78q100 51 175 75v34h-323l-49 50h495zM320 131v263q-89 -31 -193 -100q129 -56 193 -163zM113 179q63 0 129 -63q54 -52 54 -69v-21q0 -2 -27 26q-36 38 -68 60q-48 33 -88 33v34z" />
    <glyph glyph-name="Ydieresis" unicode="&#x178;" horiz-adv-x="305" 
d="M168 131v263q-56 -20 -110 -49q-28 -15 -83 -51q123 -53 193 -163zM350 508h-133v-517l-26 38l-11 25q-52 119 -180 165q-30 11 -66 11l-40 106l48 34q14 10 51 29q103 53 175 75v34h-176l-49 50h358z" />
    <glyph glyph-name="exclamdown" unicode="&#xa1;" 
d="M-268 -93v150q-17 -10 -52 -29q-17 -14 -54 -39q21 -4 38 -19q41 -35 68 -63zM-225 -181l-18 12l-25 38q-6 7 -15 19q-52 49 -122 49l-43 60l114 78q8 4 22 14l45 32q3 2 17 -16q21 -27 25 -24v-262z" />
    <glyph glyph-name="cent" unicode="&#xa2;" 
d="M-83 202q1 -7 1 -22q-1 -62 -40 -108t-100 -46q-12 0 -18 1q-93 0 -171 111q-23 33 -38 70l-30 74q-42 100 -42 206l35 -19q8 -108 77 -247l25 -37q38 -56 97 -80q12 -5 32 -5q42 0 56 11l22 10q38 23 49 64q3 12 -8 39l-2 -2q-16 -22 -49 -40q-56 -30 -81 -30
q-31 0 -63 29q-20 18 -20 42q1 6 1 9q9 54 54 52q27 -1 42 -37q3 -7 3 -13q0 -10 -7 -23q22 5 81 45q19 13 45 38q23 -21 31 -35q12 -21 18 -57z" />
    <glyph glyph-name="sterling" unicode="&#xa3;" 
d="M-128 289l32 -21q16 -11 16 -20v-326l-19 17q-5 5 -14.5 23t-19.5 25q-28 18 -55 18q-14 0 -43 -4t-43 -4h-21l-32 4q-47 6 -73 44q-23 34 -23 84q0 16 6 51q7 41 18 41l26 1q1 -8 -7 -25t-8 -24q-2 -20 2 -37q9 -39 48 -64q17 -11 46 -11h12q74 0 110 -10l41 -24v180
q-43 -44 -75 -61q-16 -9 -44 -11q-12 -1 -11 -1q-27 0 -44 12q-9 7 -29 31q-12 15 -12 38q0 21 19 49q11 17 41 17q37 0 44 -26q8 -28 -9 -58q17 0 60 36q20 17 31 32q3 9 6 19z" />
    <glyph glyph-name="currency" unicode="&#xa4;" horiz-adv-x="456" 
d="M500 508h-138q34 -37 34 -90q0 -59 -34 -101q-19 -24 -34 -30l-32 -6q-18 2 -30 6q-42 14 -68 39l-38 37q3 -26 -14.5 -45.5t-43.5 -19.5q-5 -1 -9 -1q-24 0 -38 18.5t-14 43.5q0 41 49 54q23 6 22 12l-10 60q-10 25 -28 23h-72l-51 50h500zM341 385q3 10 3 42
q1 77 -36 81h-173l22 -50q0 -10 5 -29q13 -17 34 -32l28 -20q39 -22 62 -22q47 0 55 30z" />
    <glyph glyph-name="yen" unicode="&#xa5;" horiz-adv-x="120" 
d="M171 508h-109v-601l-24 20q-21 49 -31 67q-26 45 -54 45q-11 0 -18 -14q0 -19 -11 -32q-21 -25 -44 -25q-5 0 -9 1q-37 -2 -52 42q-4 12 -4 21q0 27 26 44q23 15 51 15q60 0 97 -31l24 -21v469h-23l-51 50h181z" />
    <glyph glyph-name="brokenbar" unicode="&#xa6;" 
d="M-79 -41l-33 15q-46 115 -152 115l-34 91q7 6 177 114q7 -1 18 -1q10 0 24 1v-335zM-123 53v167q-34 -28 -75 -52q-24 -14 -30 -20q36 -8 67 -45q1 -2 38 -50z" />
    <glyph glyph-name="section" unicode="&#xa7;" horiz-adv-x="137" 
d="M-54 289q4 -8 11 -27q6 -3 51 -52q22 -25 28 -42v338h-78l-49 52h225l51 -52h-100v-485l-28 22l-24 43q-19 34 -43 73q-15 25 -26 25q-2 0 -2 -2q-2 -10 -15 -32q-6 -8 -24 -16.5t-29 -8.5q-4 0 -7 1q-35 -5 -57 35q-14 25 -7 50q17 60 71 60q10 0 14 -4q2 0 2 3
q0 11 -15 44q-13 30 -21 42q3 5 13 32q18 -8 59 -99z" />
    <glyph glyph-name="dieresis" unicode="&#xa8;" horiz-adv-x="241" 
d="M136 444q-9 -49 10 -152q21 -117 21 -143q0 -83 -85 -136q-42 -26 -61 -25q-18 1 -24 18q-4 11 15 16q28 7 33 11q33 26 39 35q14 21 18 67q2 21 -17 94q-20 79 -20 111q1 54 27 103l47 65h-140l-51 50h298l50 -47q-11 1 -70 1q-33 0 -59 -18.5t-31 -49.5z" />
    <glyph glyph-name="copyright" unicode="&#xa9;" 
d="M71 806l-213 -207h-120l289 213z" />
    <glyph glyph-name="ordfeminine" unicode="&#xaa;" 
d="M-348 55q16 1 58 -1q53 -3 58 -4q63 -4 93 -43q9 -12 19 -28v303l45 45v-430l-20 16l-23 36q-27 31 -67 33q-57 3 -180 5q-156 3 -156 128q0 32 19 91l20 -20q-7 -7 -7 -42q0 -86 141 -89z" />
    <glyph glyph-name="guillemotleft" unicode="&#xab;" 
d="M-208 56v-137q-3 6 -11 10q-12 7 -13 8l-24 35q-23 27 -62 38q-25 7 -44 7q-24 0 -69 -4q-48 -4 -69 -4q-129 -3 -154 114q-6 28 -2 53q0 7 1 37q0 23 3 20l46 -33q-11 -6 -14 -34q0 -2 -1 -6v-9q0 -72 140 -74q16 3 59 0q118 -8 150 -49q7 -9 19 -27l-1 91z" />
    <glyph glyph-name="logicalnot" unicode="&#xac;" 
d="M-223 188l1 -218q-13 7 -29 18q-16 73 -52 73q-28 0 -29 -28q0 -8 3 -11l7 -10l-30 -9q-3 9 -9 19q-34 57 -84 57q-29 0 -50 -15t-23 -43q-1 -13 13 -25.5t28 -16.5q0 19 1 24q6 17 31 22q10 2 16 2q32 0 37 -24q2 -8 -1 -23q-8 -49 -61 -49q-92 0 -108 76q-6 29 5 55
q28 65 92 65q61 0 92 -38l17 -21q0 21 2 25q13 23 32 20q16 -2 33 -16q12 -12 19 -26v117h47z" />
    <glyph glyph-name="minus" unicode="&#x2212;" horiz-adv-x="600" 
d="M653 508h-321v-336q0 -34 29 -34q42 0 113 88q19 23 22 63q-7 -2 -15 -2q-21 0 -40 12.5t-23 32.5q-3 12 1 28q11 52 61 52q7 0 24 -3q34 -6 54 -47q5 -14 12 -57q-6 -50 -17 -78q-8 -20 -38 -66q-14 -22 -54 -51.5t-64 -33.5q-35 -7 -57 9q-47 33 -58 84v223
q-7 30 -50 78q-27 30 -83 30q-65 0 -73 -52q-2 -8 -2 -26q0 -19 8 -40q10 -27 26 -27q5 0 3 5q-4 14 -4 25q0 41 51 41q7 0 13 -1q32 -2 40 -41q2 -10 2 -17q0 -30 -23 -51.5t-53 -21.5q-29 0 -61 15.5t-46 38.5q-21 33 -18 103q1 26 25 61q32 46 76 55q20 4 36 4
q22 0 52 -15q65 -25 79 -102v104h322z" />
    <glyph glyph-name="registered" unicode="&#xae;" horiz-adv-x="452" 
d="M164 303q-43 0 -71 30t-28 74q-1 54 56 101h-121l-51 50h496l48 -51h-179q17 -19 19 -56q3 -40 -14 -62l-13 -19q-72 -67 -142 -67zM292 467q2 15 -12 24q-28 14 -37 14q-11 0 -32 -10q-24 -11 -24 -20q0 -2 1 -4l65 -58q35 11 39 54zM224 392l-66 50q-2 2 -5 2
q-11 0 -22.5 -14.5t-13.5 -26.5q-2 -15 15 -36q9 -15 33 -15q21 0 35 16q29 20 24 24z" />
    <glyph glyph-name="macron" unicode="&#xaf;" horiz-adv-x="532" 
d="M414 432q9 8 9 22t-9 32q-10 22 -22 22h-127q0 -20 12 -43q32 -61 90 -55q32 0 47 22zM300 366q-58 50 -60 94q-5 -27 -29 -68t-45 -55q-13 -9 -27 -9q-20 0 -54.5 28.5t-29.5 46.5l12 24q2 4 4 4l15 -16q16 -17 27 -17q28 0 55 50q15 27 14 44q0 16 -13 16h-171l-49 50
h575l52 -50h-38q-98 0 -93 -4q13 -10 18 -32q5 -24 -1 -53q-18 -83 -88 -83q-39 0 -74 30z" />
    <glyph glyph-name="degree" unicode="&#xb0;" horiz-adv-x="569" 
d="M610 508h-263v-42q3 2 10 2q61 0 113.5 -49t49.5 -109q-2 -44 -18 -59q-9 -8 -34 -8q-3 0 -3 -2q0 7 1 7q3 0 14 -35q15 -50 14 -67q-4 -62 -56 -62q-10 0 -19 4q-37 9 -36 45q0 25 27 32q10 4 19 4q14 0 25 -11l12 -12q1 0 1 3q0 18 -15 43t-31 32q-38 17 -58 17
q-8 0 -16 -1v-298l-12 7l-7 14q-4 12 -24 45q-33 45 -79 74q-52 33 -102 35l-59 75l76 47q-4 6 -27.5 11.5t-34.5 5.5l-64 77q130 95 283 137v38h-299l-49 50h612zM347 396v-89q7 0 40 -18t38 -18q2 0 2 1v4q0 3 -3.5 13t-3.5 15q0 27 29 27q24 0 33 -19q2 1 2 5
q0 16 -36 46q-58 35 -90 35q-7 0 -11 -2zM297 311v83q-94 -29 -184 -90q30 -13 65 -41zM297 52v186q-54 -17 -144 -74q92 -33 144 -112z" />
    <glyph glyph-name="plusminus" unicode="&#xb1;" horiz-adv-x="441" 
d="M484 508h-218v-23q14 0 37 -8q9 -3 20 -9q53 -29 65 -86q9 -41 -2 -72q-14 -38 -54 -38q-48 0 -54 32q-4 22 6 43.5t32 21.5q36 0 36 -19q0 -4 -1 -9q4 11 4 22q0 34 -36 56q-11 11 -55 20q1 -29 -15 -86q-22 -77 -63 -143l-39 -62q-5 -20 -5 -37q0 -52 37 -52
q34 0 92 41q28 20 33 36q-55 -3 -64 40q-4 18 4 37q17 40 55 40q92 0 85 -87q-2 -21 -17 -50t-31 -43q-69 -58 -129 -60q-118 -4 -122 115q9 38 31 67l42 57q-3 37 -46 40q-27 2 -39 0q-3 8 -51 92q39 33 93 65q68 40 100 38v21h-218l-50 50h376q7 15 4 29v2q-1 0 -1 1
q-9 19 -45 19q-8 0 -25 -1t-25 -1q-23 0 -113 1q-31 0 -59 12q-38 16 -36 42q-6 6 -6 22q0 47 20 72l33 -18q-21 -8 -21 -31q0 -8 2 -14q10 -20 39 -24q17 -2 73 -3h75q92 -1 112 -53q7 -18 2 -55h81zM213 430q-17 -5 -55 -23q-30 -20 -60 -43q18 -8 53 -31q20 -17 23 -52
q18 25 29 67q16 62 10 82z" />
    <glyph glyph-name="twosuperior" unicode="&#xb2;" horiz-adv-x="664" 
d="M709 508h-105v-541l-27 19l-31 64q-17 36 -53 61t-76 30q6 -37 -27 -63q-16 -13 -36 -13q-25 0 -43 17.5t-20 42.5t12.5 47t38.5 29q-19 53 -71 72q-1 -19 -16.5 -34.5t-34.5 -18.5q-8 -2 -15 -2q-21 0 -34 18t-13 40q0 28 18 44.5t46 13.5q6 12 6 24q0 26 -20 41t-46 13
q1 -7 1 -13q0 -53 -57 -57q-53 -4 -63 42q-2 9 -2 20q0 36 34 57q15 5 29 13q0 8 -12.5 21t-20.5 13h-76l-51 50h714zM342 461v47h-81q-8 0 -8 -8q0 -20 24 -34q20 -12 42 -12q14 0 23 7zM342 260v132q-64 11 -97 55q-26 29 -36 61h-81q7 -8 17 -32q1 -6 17 -10
q51 -14 88 -77q20 -35 23 -67q21 -14 69 -62zM554 90v418h-162v-51q20 4 28 4q38 0 69 -23t39 -59q4 -17 4 -31q0 -39 -28 -63q-19 -16 -36 -16q-19 0 -32 12q-22 21 -22 42q1 10 10 26t17 16q12 3 22 3q24 0 37 -19q-4 13 -19 37q-19 19 -47 19q-19 0 -42 -9v-192
q48 -11 62 -19q62 -34 100 -95z" />
    <glyph glyph-name="threesuperior" unicode="&#xb3;" horiz-adv-x="662" 
d="M701 508h-701l-52 50h705zM631 313q4 -42 -20 -79q-26 -41 -67 -41q-11 0 -19 4q-40 21 -40 50q1 11 10 34q14 14 34 14q16 0 26 -10l13 -26q21 -3 21 36q1 50 -36 61q-10 6 -24 6q-33 0 -68 -31.5t-35 -60.5q0 -3 1 -6q25 -26 32 -59q7 -34 -5 -69q-26 -75 -114 -85
q-38 -4 -82 14q-56 23 -133 139q-35 52 -63 135q-18 52 -38 132l36 -19q3 -2 15 -44q40 -140 101 -201q30 -30 36 -35q56 -46 118 -46q74 0 88 63q4 16 1 29q-2 12 -22 33q-19 -18 -41 -18q-57 0 -57 59q0 22 14.5 39t36.5 17q19 0 42 -12q27 16 27 39q0 20 -19 32
q-9 6 -36 16q-8 3 -18 3q-15 0 -41 -7.5t-35 -15.5q-23 -16 -32 -31q28 -17 28 -48q1 -43 -43 -43q-52 0 -62 46q-7 34 11 66q59 103 179 94q67 -5 93 -70q2 -5 4 -62l25 26q27 26 60 28q39 2 66.5 -27t31.5 -69z" />
    <glyph glyph-name="acute" unicode="&#xb4;" horiz-adv-x="569" 
d="M625 508h-124v-521l-13 5l-16 17l-29 50q-31 55 -88 83q-4 4 -37 12q0 -16 -7 -31q-19 -41 -70 -41q-22 3 -42 17t-26 34q-4 14 -4 24q0 40 41 62q15 8 26 7q-18 22 -20 23q-50 58 -137 60l-53 78q103 73 207 96v25h-233l-50 50h623zM234 267v154q-60 -17 -116 -54
q26 -13 36 -21l25 -20q34 -27 55 -59zM452 87v421h-171v-22q4 1 9 1q38 0 76 -41q34 -37 43 -77q3 -14 3 -31q0 -29 -14 -52q-16 -27 -44 -27q-24 0 -45 20q-13 12 -13 29q0 20 18 44q18 7 31 7q15 0 25 -15q1 -1 2 -1q4 0 4 7q0 4 -2 11q-5 27 -35 45t-58 14v-200
q80 -11 114 -45q45 -44 57 -88z" />
    <glyph glyph-name="mu" unicode="&#xb5;" horiz-adv-x="697" 
d="M740 508h-740l-51 50h743zM680 274q8 -30 -14 -66q-16 -26 -32 -27q-12 -5 -29 -5q-49 0 -61 30q-8 12 -8 24q0 15 13.5 28t28.5 13q4 0 6 -1q24 0 43 -29q16 5 11 31q-3 18 -18.5 32.5t-33.5 16.5q-11 4 -23 4q-49 0 -79 -52v-288l-31 28q-6 21 -27 59q-20 22 -56 22
q-26 0 -88 -14q-58 -12 -91 -9q-156 14 -156 180q0 35 9 65l14 47q8 20 14 20q3 0 5 -4l20 -21q-17 -21 -22 -41q-4 -15 -5 -46q-4 -91 83 -112q59 -14 109 -9q30 3 52 3q69 0 104 -24q15 -10 16 -10v276q0 37 -32 37q-26 0 -77 -48q-35 -33 -51 -75q20 4 27 4q20 0 31 -17
t11 -38q0 -19 -13 -37t-31 -20q-9 -1 -21 -1q-56 0 -75 41q-6 14 -10 51q-2 24 14 57.5t36 50.5q106 92 159 86q21 -3 51.5 -29.5t30.5 -46.5v-90q4 10 34 28q37 23 68 23q37 0 66 -30t28 -67z" />
    <glyph glyph-name="paragraph" unicode="&#xb6;" horiz-adv-x="665" 
d="M710 508h-265v-80q12 4 34 4q51 0 90.5 -28t49.5 -76q8 -39 -5 -73q-16 -39 -55 -39q-55 0 -72 32q-6 11 -6 22t12 28t23 17q26 -1 37 -4q20 -6 28 -24q7 23 7 28q0 25 -29 40q-24 13 -52 15q-37 3 -60 -6v-360l-23 28l-22 63q-7 21 -37 69q-17 28 -64 50
q-16 -48 -68 -48t-62 48q-7 34 14 57.5t56 23.5q7 0 12 -1q5 12 5 26q0 28 -20 49.5t-47 22.5q-11 0 -26 -11q0 -8 -7 -25q-15 -35 -49 -39q-33 -3 -54 29q-11 17 -11 39q0 50 35 63q11 -2 25 5q2 4 1 10q-3 12 -21 30q-11 15 -18 15h-72l-47 50h712zM396 428v80h-93
q-11 0 -11 -22q0 -63 81 -63q16 0 23 5zM397 168v193q-76 7 -121 69q-28 39 -32 78h-123q8 -12 23 -49q2 -8 28 -14q81 -19 132 -125q11 -23 12 -54q59 -36 81 -98z" />
    <glyph glyph-name="periodcentered" unicode="&#xb7;" horiz-adv-x="627" 
d="M675 508h-114v-573l-52 46v84q-16 29 -55 39q-19 5 -31 5q-21 0 -62 -28q-6 -4 -48 -43q-27 -25 -55 -25q-12 0 -25 6q-67 31 -82 84l27 29q2 -23 23 -38.5t45 -12.5q21 2 42 16q25 16 25 34q0 4 -2 6q-44 74 -108 106q-39 20 -51 24q-25 9 -55 11l-47 80q34 22 81 44
q67 31 80 39q24 15 111 40v27h-321l-49 50h671zM508 116v392h-141q2 -26 0 -30q37 -9 49 -16q49 -26 73 -85q9 -22 9 -46q0 -31 -13 -60q-16 -36 -43 -36q-17 0 -32.5 11t-18.5 27q-3 14 3.5 32t18.5 24q8 3 17 3t17 -2t7 -2q2 0 2 2q0 53 -44 81q-7 4 -44 23v-271
q-13 0 16.5 4t33.5 4q27 0 50 -16q10 -7 40 -39zM322 176v254q-73 -42 -166 -87q15 -3 56 -38q62 -53 91 -100z" />
    <glyph glyph-name="cedilla" unicode="&#xb8;" horiz-adv-x="512" 
d="M366 558l54 -104q14 -26 40 -80q13 -30 17 -60q5 -39 -53 -78q17 -25 21 -60q5 -43 -23 -82.5t-71 -42.5q-14 -1 -31 -1q-41 0 -66 11q-9 4 -52 31q-68 43 -129 161q-48 93 -70 256l36 -24q1 -5 8 -45q10 -59 41 -122l24 -48q16 -27 35 -46q96 -97 179 -97q62 0 80 36
q7 14 6 22l-2 16q-18 -14 -37 -14q-40 0 -59 36q-7 13 -7 28q0 32 28 50q12 8 27 8q20 0 40 -13q-6 -1 9 -1q3 0 22 20q6 6 1 29q-5 22 -18 51q-20 44 -33 46l-51 -81q-6 43 -28 72l-23 30q-20 19 -48 19q-42 0 -72 -40q21 8 36 8q25 0 50.5 -16t30.5 -39q6 -26 -16 -58
q-33 -48 -52 -65q-4 -4 -17 -15l-62 53l77 63q17 14 17 24q0 9 -15 9q-6 0 -14 -2q-56 -15 -70 -15q-38 0 -38 42q0 38 44 82q34 34 75 32q42 -2 73.5 -28.5t41.5 -67.5z" />
    <glyph glyph-name="onesuperior" unicode="&#xb9;" horiz-adv-x="485" 
d="M344 310q0 40 -26 91t-59 73.5t-70 17.5q-33 -5 -63 -23q-37 -22 -38 -51q13 6 47 6q52 0 75 -14q29 -17 29 -64q0 -14 -4 -26q90 -9 110 -91q-1 64 -1 81zM214 274q-39 -7 -55 -16q-28 -16 -46 -58q20 9 54 9q40 0 67 -20q31 -22 31 -60q0 -58 -91 -165l-58 65
q7 4 56 56t49 66q-1 22 -27 22q-12 0 -48.5 -21t-49.5 -21q-10 0 -18 5q-39 25 -39 65q0 32 25 67q38 54 108 63q26 3 26 32q0 11 -9 19.5t-20 8.5q-12 0 -48.5 -21t-49.5 -21q-10 0 -18 5q-42 26 -42 71q0 33 24 67q38 55 122 55q167 0 211 -165q-8 52 -16 134
q-4 42 -3 137l34 -29q-9 -17 7 -53q6 -13 23 -13h68l49 -50h-131v-522l-57 60v142q-12 26 -19 34l-32 28t-36 20q-25 7 -41 4z" />
    <glyph glyph-name="ordmasculine" unicode="&#xba;" horiz-adv-x="765" 
d="M339 254q3 20 3 40q0 104 -66 165q-39 35 -87 33q-70 -3 -101 -74q20 9 54 9q87 0 98 -81q6 -47 -91 -164l-58 65q9 6 57 57t48 65q-1 22 -27 22q-12 0 -48.5 -21t-49.5 -21q-10 0 -18 5q-39 25 -39 64q0 28 21.5 64t45.5 51q39 24 86 24q74 0 112 -40q60 -63 71 -109
v150h414l49 -50h-412v-211q6 5 29 28q35 34 55 47q83 52 140 75l87 -65q-81 -158 -64 -281q-1 -14 15 -107l-34 17l-13 60q-16 74 -16 145q0 68 15 131q-60 -21 -98 -55q-72 -63 -94 -121z" />
    <glyph glyph-name="guillemotright" unicode="&#xbb;" horiz-adv-x="555" 
d="M348 51v190q-47 -17 -97 -45l-53 -35q55 -21 98 -58q21 -18 52 -52zM399 328l34 11q11 3 43 13q1 2 3 2q11 0 29 -21q6 -4 33 -38q5 -12 9 -28q-1 -9 -3 -33q-4 -55 -3 -102q2 -78 20 -167q-19 13 -44 32l-17 26q-5 19 -13 42l3 188q0 6 -6.5 13.5t-12.5 7.5
q-39 0 -49 -1q-28 -5 -28 -22v-317l-11 10q-19 46 -59 89q-73 78 -159 72l-66 83l119 73l127 55q0 38 -25.5 84t-57 69.5t-63.5 23.5q-82 0 -114 -75q36 16 68 16q51 0 69 -35q13 -25 13 -45q0 -16 -11 -37t-23 -32q-39 -34 -108 -71l-58 65q27 8 88 42q68 38 68 54
q0 2 -2 4q-11 9 -24 9t-48.5 -20t-47.5 -20q-10 0 -19 6q-40 25 -40 66q0 29 21 63.5t47 49.5q35 20 80 20q119 0 173 -92q8 -13 21 -51q-1 35 -5 106q-3 55 3 137l30 -29q-9 -18 7 -53q5 -12 58 -15q18 -1 102 0l49 -48h-200v-180z" />
    <glyph glyph-name="onequarter" unicode="&#xbc;" horiz-adv-x="529" 
d="M576 508h-126q5 -12 11 -28q3 -12 3 -22q0 -25 -21 -39.5t-47 -14.5q-30 0 -57 24q-6 5 -38 40l-37 40h-126q15 -10 23 -25q3 -4 5 -15q55 -8 68 -12q38 -9 61 -30q32 -29 41 -76q13 -3 46 -14q97 -41 107 -134q4 -38 -12 -65q-18 -31 -56 -31q-21 0 -36 13t-15 34
q0 23 21 43q15 5 27 5q25 0 43 -26q0 10 -8 38q-15 30 -47 46l-24 13q-13 4 -44 3v-289l-18 15l-11 23q-19 41 -52 68q-62 52 -132 57l-66 76q101 71 228 122q2 56 -57 72q-42 0 -61 -26q2 -7 2 -14q0 -36 -31 -57q-19 -13 -39 -13q-60 0 -60 53q0 11 2 23q9 47 77 71
q1 2 1 7q-22 45 -67 45h-51l-52 50h572zM417 508h-112l22 -24q27 -30 56 -30q16 0 30.5 8t14.5 23q0 12 -11 23zM288 95v177q-50 -18 -79 -36q-4 -2 -53 -34q39 -15 88 -59q31 -28 44 -48z" />
    <glyph glyph-name="onehalf" unicode="&#xbd;" horiz-adv-x="513" 
d="M555 508h-177q8 -6 7 -16q0 -20 -17.5 -38.5t-37.5 -21.5q-33 -4 -73 32q-9 8 -47 44q-6 3 -45 0q-11 -1 -4 -31q2 -10 22 -18l31.5 -8.5t35 -32.5t22.5 -49q2 -10 2 -27q61 80 137 112l82 -54q-54 -51 -73 -86q-47 -88 -47 -171q0 -62 46 -151l-42 21l-23 69
q-18 54 -18 105q0 83 42 172q-6 -13 -38 -48l-45 -51q-35 -47 -57 -68q-39 -38 -79 -49q-46 0 -75 43q-21 31 -20 60q0 6 2 8l20 18q14 -54 41 -54q9 0 18 3q24 8 72 61q17 18 21 44q4 21 -3.5 43.5t-26.5 27.5q-25 6 -40 -6q0 -67 -53 -67q-66 0 -66 66q0 40 40 66
q12 8 36 9l-1 4l-22 39h-104l-48 50h555zM334 508h-94l31 -31q23 -22 33 -22q12 0 22 14t10 26q0 6 -2 13z" />
    <glyph glyph-name="threequarters" unicode="&#xbe;" horiz-adv-x="776" 
d="M817 508h-544q-21 2 -21 -14q0 -9 5 -18l1 -1q13 -20 102 -38q10 -2 20 -2q54 0 99 26q12 -19 48 -53q41 -29 106 -26q26 1 67 16l60 -68q-78 -96 -78 -180q0 -54 6 -104q1 -4 8 -69l-33 14q-5 17 -18 90q-5 28 -5 60q0 46 12 101q2 10 27 78q-63 -4 -106 16
q-61 28 -88 60q-67 -67 -68 -71q-3 -13 -3 -20q0 -29 40 -27q16 1 48 19t33 18q28 0 63 -82q3 -7 3 -22q0 -88 -63 -118q-34 -16 -63 -16q-2 0 -58 14q-25 10 -52 39q-14 14 -46 78q-8 -29 -32 -49.5t-54 -22.5q-65 -5 -119 40q-21 17 -43.5 49.5t-29.5 56.5q-13 43 -26 101
l-10 95l32 -17q4 -29 23 -106q57 -151 144 -151q36 0 64 19.5t28 53.5q0 47 -24 41q-9 -2 -38 -16q-24 -11 -40 -11q-83 0 -86 109q-2 66 51 108h-160l-48 50h817zM551 207q2 2 2 6q0 13 -16 31q-20 -16 -64 -27q-15 -4 -44 8q-39 16 -52 54t8 101q0 2 -1 3q-77 16 -126 43
q-11 6 -27.5 22.5t-18.5 25.5l-2 2q-19 0 -40 -39.5t-19 -60.5q2 -24 32 -24q33 0 74 32q4 3 9 3q24 0 46 -38q16 -28 21 -59q2 -11 6 -37q7 -39 48 -72.5t82 -38.5q35 -4 58.5 13t23.5 52z" />
    <glyph glyph-name="questiondown" unicode="&#xbf;" 
d="M-97 320q3 -9 3 -95v-267l-19 17q-7 15 -24 41q-25 31 -73 31q-19 0 -55 -7t-52 -8q-33 -2 -69 12q-40 15 -56 40q-29 45 -30 93q0 34 14 73q9 25 11 24l23 -18q-10 -32 -10 -59q0 -55 33 -79q28 -20 130 -10q20 2 29 2q52 0 76 -22q3 -2 23 -24v210q0 10 -7 31.5
t-14 19.5q-2 3 -7 3q-8 0 -26 -7q-13 -7 -38 -30q-17 -20 -21 -47q14 4 23 4q17 0 28.5 -13.5t11.5 -30.5q-1 -25 -21 -40t-45 -15q-19 0 -40 14t-26 32t-5 36q0 38 21 65q13 16 36 42l46 28q11 13 52 13q57 0 78 -59z" />
    <glyph glyph-name="Agrave" unicode="&#xc0;" horiz-adv-x="599" 
d="M644 507h-278q-17 4 -70 -15q11 -39 63 -62q11 -5 34 -5q76 0 107 28l76 -79q-48 -43 -68 -99q-11 -31 -26 -116q-9 -51 0 -92q5 -22 12 -42l-5 -172l-21 24q-5 17 -14 39q-27 52 -70 71v-175l-26 38l-26 41q-53 84 -142 97l-58 63q8 0 49 23l48 27q-4 -1 -27 6
q-78 24 -128 122q-46 90 -42 177q1 13 10 54l30 -16q-5 -21 -7 -45q-6 -83 69 -173q52 -62 117 -62q38 0 69 17q38 20 38 55q0 19 -17 39q-3 4 -9 4q-4 0 -37.5 -13t-51.5 -13q-13 0 -27 2q-26 4 -70 42q-21 18 -24 74q-2 34 18.5 74.5t48.5 62.5h-195l-49 50h649zM255 467
q-1 2 -3 2q-17 0 -47 -44q-28 -40 -32 -61q-1 -8 -1 -15q0 -34 39 -34q26 0 79 32q20 12 27 12q4 0 8 -3l15 -14q44 -41 54 -88q7 -33 -5 -63q-7 -18 -6 -27q0 -31 1 -37v-91q25 -10 61 -67l7 82l-5 50q-8 83 -8 129q1 78 38 137q1 3 -2 3q-6 0 -19 -1t-19 -1q-63 0 -128 42
q-36 24 -54 57zM341 -75v179q-7 -4 -63 -32q-8 -4 -55 -35q87 -47 118 -112z" />
    <glyph glyph-name="Aacute" unicode="&#xc1;" horiz-adv-x="672" 
d="M715 508h-409q-1 -18 -3 -45q7 -28 19 -64q27 -48 43 -48q8 0 19 10q15 19 55 54l27 18q17 8 31 10q35 4 70.5 -8t51.5 -40q17 -40 17 -58q0 -39 -50 -74q40 -68 40 -98q-1 -45 -50 -66q-23 -10 -51 -10q-39 0 -56 11q-56 37 -85 104q-20 -114 -130 -114q-84 0 -148 72
q-38 43 -49 81q-16 40 -33 130l-16 84l37 -19l9 -56q1 -5 10 -46q12 -53 56 -111q18 -23 50 -46q38 -27 61 -27q40 0 76 25q41 27 41 65q0 22 -13 40q-2 2 -4 2q9 0 9 -2q0 -5 -34 -17q-54 -19 -74 -18q-33 2 -38 4q-42 10 -60 62q-8 23 -9 45q-1 36 22 83t53 67h-203
l-49 50h718zM310 350q-28 42 -59 101q-1 5 -5 5q-19 0 -46 -36t-29 -58q-6 -58 40 -58q43 0 99 46zM581 172q6 11 5 19q0 22 -26 50q-25 -19 -52 -19q-40 0 -47 30q-4 18 5 39q15 35 50 35q21 0 36 -20q31 28 31 48q0 14 -16 25q-29 19 -52 19q-42 0 -101 -62
q-30 -32 -30 -44q1 -55 43 -102q43 -50 97 -50q39 0 57 32z" />
    <glyph glyph-name="Acircumflex" unicode="&#xc2;" horiz-adv-x="626" 
d="M592 165q-30 -44 -79 -44q-51 0 -95 42q-39 36 -58 89q-14 37 -17 61v-319l-16 14l-29 58q-49 98 -202 112l-59 97q112 76 233 142q-16 77 -117 77q-53 0 -60 -37q-2 -8 4 -10h13q18 -2 22 -33q3 -25 -14 -43.5t-42 -18.5q-11 0 -20 4q-30 13 -32 15q-18 16 -18 58
q0 50 56 82q48 28 102 28q33 0 54 -12q62 -35 79 -75v156l48 -57v-154q10 36 25 56q2 4 24 28q57 64 118 64q45 0 70 -39q22 -33 22 -80q0 -68 -39 -97q30 -23 39 -65q4 -19 4 -40q0 -35 -16 -59zM562 446q-16 26 -55 26q-36 0 -97 -46q-54 -41 -54 -70q0 -44 71 -130
q30 -36 68 -36q26 0 49.5 17.5t23.5 42.5q0 26 -30 48q-24 -21 -54 -21q-39 0 -47 38q-7 31 10 58t49 27q22 0 41 -19q33 20 33 41q0 11 -8 24zM296 123v225l-80 -51l-71 -50q63 -30 90 -54q41 -37 61 -70z" />
    <glyph glyph-name="Atilde" unicode="&#xc3;" horiz-adv-x="546" 
d="M18 433q-8 56 52 101q54 40 110 40q15 0 24 -3q63 -21 79 -85l40 41q52 53 102 53q36 0 59 -32q21 -28 21 -65q0 -41 -31 -76q12 -11 27 -37q11 -30 11 -54q0 -35 -18.5 -58t-52.5 -23q-54 0 -107.5 49.5t-60.5 103.5l-40 -51q7 -16 26 -49q10 -12 72 -62q45 -36 53 -75
q2 -8 2 -16q1 -32 -33 -66q-29 -30 -64 -43q39 -17 117 -79.5t106 -98.5l4 -44q-61 64 -188 134q-80 44 -199 56l-59 102q44 -17 89 -19q53 -2 107 14q70 21 70 63q0 28 -24 40q-11 4 -21 7q-18 -26 -41 -37q-36 -18 -58 -25q-12 -4 -25 -4q-62 0 -114 45q-27 24 -22 82
q3 33 61 69l103 63q52 41 52 72q0 13 -4 24q-12 33 -42 33q-12 0 -25 -5q-35 -13 -43 -18q-24 -15 -31 -35q27 -16 27 -38q0 -9 -5 -24q-9 -27 -45 -27q-53 0 -61 57zM468 334q0 16 -25 38q-14 -21 -35 -21q-20 0 -35.5 16t-15.5 36q0 19 13 31t32 12q15 0 28 -9
q31 19 28 50q-3 24 -33 24q-35 0 -88 -36q-35 -24 -35 -66q0 -24 31 -67q14 -19 39.5 -33.5t48.5 -14.5q17 0 32 11.5t15 28.5zM231 244q2 1 2 5q-2 5 -15 44q-5 21 -4 23l-125 -79q-5 -3 -6 -9q0 -12 29 -23q26 -10 40 -9q28 2 51 12q33 14 28 36z" />
    <glyph glyph-name="Adieresis" unicode="&#xc4;" horiz-adv-x="554" 
d="M247 464q-3 36 -24 36q-15 0 -20 -2q-10 -4 -30 -23q-4 -4 -4 -6q3 -3 7 -11q9 -17 9 -33q0 -20 -18 -38t-38 -17q-58 4 -58 61q0 46 38.5 85t84.5 39q40 0 75 -33q8 -8 22 -26q8 -11 11 -8q22 22 59 47q26 9 45 9q9 0 17 -2q87 0 102 -72q4 -20 -7 -40q-4 -6 -26 -33
q33 -38 32 -58q-4 -50 -31 -70l43 -41q-27 -17 -47 -43q-40 -52 -43 -78q-3 -27 7 -53q4 -10 24 -47l-26 -24q-44 76 -49 116q-2 16 -2 34q0 21 4 42q16 34 30 74q0 1 -1 1q-36 -4 -66 16q-4 3 -49 40q-29 24 -43 73q-2 2 -5 2q-22 0 -46.5 -40.5t-24.5 -64.5q-1 -37 33 -37
q11 0 35 17q6 4 18 21q8 11 22 11q5 0 9 -3q6 2 30 -28q47 -58 47 -109q0 -40 -28.5 -70.5t-69.5 -41.5q-16 -5 -34 -5q-79 0 -136 74q-60 78 -64 175q-1 24 -1 102q24 -12 28 -16q-3 -54 8 -94q15 -55 23 -74q14 -34 43 -61q45 -43 80 -41q37 2 70 18q43 20 43 51
q0 13 -7 24q-5 17 -20 17q-6 0 -12 -3q-41 -19 -71 -19t-53 14q-37 22 -45 61q-16 73 74 164q27 28 26 41zM474 348q-8 0 -25 -4.5t-25 -4.5q-13 0 -28 8.5t-20 14.5q-9 11 -9 36q1 34 34 48q10 4 19 4q15 0 38 -16q17 6 17 28q0 7 -1 15q-6 26 -35 26q-33 0 -65 -20
q-67 -42 -67 -70q0 -4 2 -7q8 -30 11 -39q19 -53 81 -69q11 -3 20 -3q32 0 52 31q6 9 4 16q0 3 -3 6z" />
    <glyph glyph-name="Aring" unicode="&#xc5;" horiz-adv-x="772" 
d="M717 211q0 14 -31 45q-4 -1 -26 -13q-15 -8 -28 -8q-19 0 -37 12.5t-22 30.5q-5 25 13 45.5t43 20.5q12 0 22 -6q6 1 11 1q4 0 11.5 -2t10.5 -2l6 4q17 24 17 45q0 22 -17.5 36t-39.5 14q-47 0 -104 -50.5t-57 -97.5q1 -52 59 -94q49 -35 91 -35q29 0 51 12q27 15 27 42z
M488 207v-213q22 -1 48 -53v215q-20 11 -48 51zM436 -103v179q-39 -13 -122 -67q27 -11 67.5 -48.5t54.5 -63.5zM669 88q-40 0 -89 22v-285l-21 24q-31 89 -74 110v-175q-23 20 -57 71t-58 71q-38 32 -89 34l-58 63q11 1 47 22q43 26 50 28l98 37q-21 9 -50 9
q-23 0 -70 -5.5t-70 -5.5q-155 0 -182 129q-12 57 6 121q13 47 31 59l20 -20q-27 -38 -27 -87q0 -86 76 -111q36 -12 147 -12q66 0 108 -26l31 -24v328q0 7 -4 18t-9 11q-4 4 -15 4q-38 0 -83 -47q-41 -44 -51 -85q18 3 27 3q33 0 41 -43q1 -5 1 -15q0 -26 -19 -40.5
t-46 -14.5q-84 0 -85 95q0 70 56 126q48 49 121 72q19 6 27 6q28 0 58 -25t30 -52v-112q14 45 62 90q51 49 94 49t76 -39.5t33 -83.5q0 -49 -40 -91q39 -73 38 -110q-1 -93 -81 -93z" />
    <glyph glyph-name="AE" unicode="&#xc6;" horiz-adv-x="451" 
d="M499 508h-350v-241q0 -52 37 -52q18 0 42 17q11 8 33 30q25 32 42 97q-54 13 -61 47q-6 27 12 51t46 24q43 0 71 -53q6 -8 6 -57q0 -57 -39 -140q31 -61 30 -88q-3 -64 -57 -96q-29 -17 -78 -17q-41 0 -69 11q-23 9 -61 37q-14 10 -40 42q-16 19 -34 71q-18 48 -21 77
l24 -12q12 -29 44 -82q62 -80 134 -80q30 0 62 13q67 27 59 61q-4 20 -28 30q-23 -29 -54 -37q-21 -11 -45 -11q-18 0 -33 9q-27 7 -43 26q-9 11 -24 44q-4 9 -4 33v246h-103l-49 50h365q9 0 12 6q12 12 12 26q-1 26 -41 32q-24 4 -44 1q-18 -2 -106 -3q-52 0 -75 5
q-32 8 -62 34t-36 57q-3 14 4 50q7 29 16 29q2 0 4 -1l29 -16q-19 -8 -23 -21v-30q1 -9 18 -19q14 -8 26 -10q31 -5 98 -4q50 1 72 0q58 -2 80 -14q72 -38 74 -122h78z" />
    <glyph glyph-name="Ccedilla" unicode="&#xc7;" horiz-adv-x="887" 
d="M933 508h-318v-164q0 -28 6 -30q22 2 68 50q51 53 56 56q25 -14 42 -36q48 -63 48 -132q0 -109 -67 -161q-40 -31 -93 -31q-111 0 -190 150q-18 34 -23 41q-13 -50 -23 -68q-18 -33 -59.5 -55t-80.5 -22q-70 0 -133 57q-37 33 -72 100q-5 16 -23 63l-5 12q-19 47 -24 87
q-1 4 -6 53l30 -16q20 -63 33 -98q23 -60 49 -92l38 -46q36 -33 100 -33q77 0 119 59q29 40 29 72t-28 59q-4 -16 -38 -47q-29 -26 -43 -34q-32 -18 -57 -18q-45 0 -65 64q-2 6 -2 52v108h-197l-50 50h930zM772 338q-6 -17 -39 -47q-26 -23 -43 -34q-35 -21 -59 -21
q-44 0 -63 67q-2 12 -2 52v153h-316v-135q7 -5 16 -5q29 0 77 51q14 19 37 46q32 -16 58 -66q13 -25 25 -53l52 -122q26 -37 35 -45q42 -37 99 -37q83 0 124 68q24 40 24 69t-25 59z" />
    <glyph glyph-name="Egrave" unicode="&#xc8;" horiz-adv-x="600" 
d="M653 508h-321v-336q0 -34 29 -34q42 0 113 88q19 23 22 63q-7 -2 -15 -2q-21 0 -40 12.5t-23 32.5q-3 12 1 28q11 52 61 52q7 0 24 -3q34 -6 54 -47q5 -14 12 -57q-6 -50 -17 -78q-8 -20 -38 -66q-14 -22 -54 -51.5t-64 -33.5q-35 -7 -57 9q-47 33 -58 84v223
q-7 30 -50 78q-27 30 -83 30q-65 0 -73 -52q-2 -8 -2 -26q0 -19 8 -40q10 -27 26 -27q5 0 3 5q-4 14 -4 25q0 41 51 41q7 0 13 -1q32 -2 40 -41q2 -10 2 -17q0 -30 -23 -51.5t-53 -21.5q-29 0 -61 15.5t-46 38.5q-21 33 -18 103q1 26 25 61q32 46 76 55q20 4 36 4
q22 0 52 -15q65 -25 79 -102v104h221q3 11 5 35q1 17 -20 31q-17 11 -83 11q-90 0 -175 -10q-25 -3 -44 -3q-60 0 -98 28q-43 31 -43 89q0 32 12 46q8 18 12 14q7 -9 11 -22q-12 -12 -12 -26q0 -28 28 -44q24 -14 53 -12l54 4q23 1 83 4q67 4 96 2q14 -1 55 -3q25 -2 42 -11
q4 -2 35 -25q21 -19 30 -50q9 -32 0 -58h60z" />
    <glyph glyph-name="Eacute" unicode="&#xc9;" horiz-adv-x="512" 
d="M559 508h-200q96 -127 96 -258q0 -125 -88 -183q-46 -30 -103 -28q-58 2 -99 35q-54 44 -57 85q-6 15 -6 36q-1 38 9 50q28 11 71 34q51 27 63 42q22 26 22 52q0 11 -4 22q2 7 2 13q-1 40 -39 68q-35 24 -77 24q-65 0 -73 -52q-2 -8 -2 -26q0 -19 8 -40q10 -27 26 -27
q5 0 3 5q-4 14 -4 25q0 41 51 41q7 0 13 -1q32 -2 40 -41q2 -10 2 -17q0 -30 -23 -51.5t-53 -21.5q-29 0 -61 15.5t-46 38.5q-21 33 -18 103q1 26 25 61q32 46 76 55q20 4 36 4q22 0 52 -15q41 -16 67.5 -60.5t26.5 -90.5q0 -12 -3 -23q15 23 16 40q1 9 -3 45q-2 18 -13 40
l-67 130q-31 60 -31 110q0 66 58 108l53 -53q-64 -28 -64 -86q0 -32 21 -75q15 -32 59 -83h187zM402 319q-12 59 -49 107q0 -95 -61 -167q-28 -33 -111 -82q-11 -6 -6 -29q13 -61 79 -61q63 0 110 69q26 39 33 62q15 52 5 101z" />
    <glyph glyph-name="Ecircumflex" unicode="&#xca;" horiz-adv-x="650" 
d="M-51 508h404q45 0 79.5 25.5t34.5 69.5q0 35 -25 62t-59 27q-37 0 -60 -28l-22 -66q8 10 37 31t37 21q19 0 31 -12.5t12 -31.5q0 -47 -77 -47h-344zM-53 421q-28 -1 552 -1q45 0 79.5 25.5t34.5 68.5q0 36 -24.5 63t-59.5 27q-34 0 -52 -28l-9 -73q5 10 25.5 35t27.5 25
q17 0 30 -13.5t13 -30.5q0 -47 -77 -47l-486 -1z" />
    <glyph glyph-name="Edieresis" unicode="&#xcb;" horiz-adv-x="509" 
d="M562 508h-562l-51 50h562zM353 486q83 1 120 -89q11 -28 -6 -89q-11 -38 -26 -55q22 -22 29 -37q10 -48 10 -57q0 -138 -148 -138q-51 0 -90 24q-26 16 -74 67q-80 85 -149 330l34 -19q2 -1 18 -46q21 -60 52 -112q17 -29 27 -44q15 -23 33 -41l34 -34q61 -51 115 -51
q38 0 67 18q33 20 40 55q2 10 2 18q0 21 -12 31l-17 14q-19 -19 -44 -19q-26 0 -44 16.5t-17 42.5q0 24 17 43.5t40 19.5q18 0 40 -11q36 17 36 52q0 8 -2 17q-10 44 -59 44t-82 -22l-30 -20q-16 -10 -28 -29q23 -17 28 -49q8 -52 -49 -52q-68 0 -68 73q0 24 10 41
q62 106 193 108z" />
    <glyph glyph-name="Igrave" unicode="&#xcc;" horiz-adv-x="511" 
d="M554 506h-99v-533l-24 15l-27 51q-13 25 -28 39q-74 70 -158 93q-25 7 -89 13l-82 112q35 -9 62 -9q42 0 95 25q19 9 70 51q28 29 28 57q0 25 -30 55l-56 -65l-34 5q4 7 4 16q0 30 -29 57q-7 6 -19 6q-15 0 -33 -11.5t-18 -25.5q-1 -3 2 -6q14 -5 28 -9q27 -13 29 -52
q1 -23 -14.5 -36.5t-38.5 -13.5q-48 -1 -75 54q-16 32 -14 54q9 42 24 60q29 34 57 41q37 9 60 -6q16 -10 41 -48l61 66l48 -46q36 -34 46 -56q2 -9 13 -46q4 -14 4 -25q0 -50 -54 -105q-7 -7 -37 -25q-25 -15 -25 -21q0 -3 2 -4q-1 0 -2 -1q0 -2 34 -23q47 -30 73 -53
l58 -53v534l28 -34q-3 -28 15 -42q5 -3 60 -5q46 -51 44 -50z" />
    <glyph glyph-name="Iacute" unicode="&#xcd;" 
d="M-58 196q0 -88 -67 -138q-43 -33 -96 -33q-38 0 -91 22q-106 43 -176 199l-16 41q-44 114 -55 184l22 -13l31 -69q33 -74 55 -113q95 -170 220 -170q51 0 90 27q43 31 42 80t-43 69q-8 4 -18 4h-19q22 -24 22 -56q0 -38 -38 -57q-18 -9 -36 -9q-25 0 -47 14t-27 37
q-4 17 -4 30q0 29 17.5 53t44.5 34q49 17 89 4q101 -33 100 -140z" />
    <glyph glyph-name="Icircumflex" unicode="&#xce;" horiz-adv-x="499" 
d="M550 508h-551l-49 50h549zM446 -14l-32 24q-6 24 -25 63q-23 27 -71 27q-27 0 -81.5 -8t-83.5 -5q-144 13 -144 164q0 52 24 118q7 20 14 20q2 0 5 -4l20 -21q-25 -34 -28 -92q-2 -55 35 -92q14 -13 47 -19q30 -5 52 -1q29 6 68 6q76 1 116 -26l33 -28v289q-6 27 -11 25
q-4 3 -17 3t-23 -5q-36 -18 -57 -39q-36 -21 -52 -75q21 4 28 4q19 0 30.5 -17.5t11.5 -37.5q0 -19 -13 -37t-31 -20q-9 -1 -21 -1q-68 0 -81 60q-3 13 -4 32q-2 25 15 58q15 30 35 50q93 92 158 86q11 -1 32 -12q51 -26 51 -65v-424z" />
    <glyph glyph-name="Idieresis" unicode="&#xcf;" horiz-adv-x="539" 
d="M593 508h-504v-192q4 3 24 27q25 30 43 48q41 41 98 72l71 -59q-75 -81 -77 -169q12 28 73 86q47 45 105 68l76 -52q-73 -97 -75 -175q-3 -19 -3 -39q0 -63 25 -138l-39 26q-11 30 -22 89q-12 66 -9 91q8 67 24 109q-64 -47 -101 -98q-8 -11 -40 -83q-44 71 -44 73
q-14 23 -18 57q0 71 34 121q-53 -38 -111 -127q-12 -19 -24 -53l-60 59v259h-39l-50 50h592z" />
    <glyph glyph-name="Eth" unicode="&#xd0;" horiz-adv-x="434" 
d="M417 291q-7 -12 -30 -35q32 -43 32 -95q1 -67 -68 -86q-21 -6 -43 -6q-201 0 -281 322q-23 92 -20 103l20 2q20 -92 49 -159q11 -27 67 -105q9 -13 42 -37q66 -48 120 -48q60 0 60 60q0 6 -3 28q-18 -16 -38 -16q-37 0 -57 36q-8 14 -8 28q0 23 18 39t41 16q18 0 32 -9
q2 1 11 1q5 0 16 21q10 20 -7 74q-10 32 -21 37l-52 -79l-19 33q5 29 -21 55t-55 23q-8 -1 -23 -2q-8 -3 -34 -29q-9 -14 -9 -31q0 -7 1 -15q6 -25 16.5 -28t11.5 -5q0 56 39 54q38 -2 38 -38q0 -6 -1 -13q-8 -52 -66 -52q-47 0 -73 47q-16 29 -16 56q0 44 31 85t74 41
q30 0 60 -23q16 -12 25 -42q7 -24 9 -21l49 80l16 -18l6 -25q2 -12 14 -33l17 -32t27 -55q12 -24 13 -54q1 -31 -10 -50z" />
    <glyph glyph-name="Ntilde" unicode="&#xd1;" horiz-adv-x="487" 
d="M444 311h-408v70h408v-70z" />
    <glyph glyph-name="Ograve" unicode="&#xd2;" horiz-adv-x="466" 
d="M315 698l11 -22q-59 -38 -62 -92q16 13 33 13q41 0 50 -42q6 -30 -12 -53t-48 -23q-32 0 -51.5 26t-19.5 58q0 43 30 82q27 36 69 53zM144 698l11 -22q-59 -38 -62 -92q16 13 34 13q41 0 50 -42q6 -30 -12 -53t-48 -23q-33 0 -52 25t-19 59q0 44 28 82t70 53z" />
    <glyph glyph-name="Oacute" unicode="&#xd3;" horiz-adv-x="400" 
d="M80 480l-11 22q59 37 62 92q-17 -14 -34 -14q-40 0 -49 42q-3 12 -1 24q3 22 20.5 37t39.5 15q71 0 71 -86q0 -41 -29 -79.5t-69 -52.5zM250 480l-11 22q59 37 62 91q-18 -13 -34 -13q-40 0 -49 42q-3 12 -1 24q3 22 20.5 37t39.5 15q56 0 69 -62q2 -10 2 -24
q0 -42 -29 -79.5t-69 -52.5z" />
    <glyph glyph-name="Ocircumflex" unicode="&#xd4;" horiz-adv-x="281" 
d="M144 698l11 -22q-58 -38 -62 -92q17 13 34 13q41 0 50 -42q6 -30 -12 -53t-48 -23q-32 0 -51.5 26t-19.5 58q0 43 28.5 81t69.5 54z" />
    <glyph glyph-name="Otilde" unicode="&#xd5;" horiz-adv-x="220" 
d="M80 480l-11 22q59 37 62 92q-17 -14 -34 -14q-40 0 -49 42q-3 12 -1 24q3 22 20.5 37t39.5 15q71 0 71 -86q0 -41 -29 -79.5t-69 -52.5z" />
    <glyph glyph-name="Odieresis" unicode="&#xd6;" 
d="M-73 -39q-7 5 -32 50q-29 52 -34 59q-35 36 -112 36q-37 0 -118 -4q-44 -2 -83 15q-42 18 -63 53q-26 43 -25 82q2 86 6 82l28 -28q-5 -10 -5 -22q0 -9 2 -18q10 -47 63 -73q15 -7 65 -10l77 -4q46 -2 76 -11q20 -6 41 -14q46 -28 59 -49q37 -45 48 -78q7 -21 7 -66z" />
    <glyph glyph-name="multiply" unicode="&#xd7;" horiz-adv-x="559" 
d="M600 508h-503v-151q2 1 18 19.5t37 36.5q58 50 109 50q7 0 14 -1q31 -10 45 -24q7 -7 26 -35q9 -13 9 -67q28 13 66 29q5 2 9 2q18 0 36 -23t21 -43l7 -41q-7 -57 -6 -132q0 -56 15 -132q-43 16 -57 62q-3 11 -9 20q-3 57 -3 110q0 27 2 102q-55 -7 -76 -27v-286l-28 25
l-24 41q-20 34 -74 62q-36 19 -77 22l-49 65q33 26 85 61q2 1 112 70v49q-1 10 -8 21q-5 1 -11 1q-41 0 -89 -36q-43 -31 -69 -71q-23 -35 -35 -57l-45 58v220h-47l-52 50h602zM310 85v155q-4 -3 -55 -32q-10 -6 -57 -37q47 -17 99 -69q5 -5 13 -17z" />
    <glyph glyph-name="Oslash" unicode="&#xd8;" horiz-adv-x="392" 
d="M437 508h-338v-162q4 5 16 23q20 28 36 40q69 51 102 51q10 0 20 -4q33 -13 46 -31q26 -34 26 -80v-368l-25 29l-21 36q-15 26 -68 57q-27 16 -68 19l-55 60q30 27 91 71q25 18 94 58l3 60q1 24 -13 24q-38 1 -103 -53q-55 -45 -85 -127l-48 55v242h-47l-49 50h437z
M294 91v131q-10 -6 -40 -21q-16 -8 -59 -36q69 -24 99 -74z" />
    <glyph glyph-name="Ugrave" unicode="&#xd9;" horiz-adv-x="486" 
d="M539 508h-120v-511l-25 15q-6 4 -10 17l-8 27q-18 41 -29 47q-31 31 -49 31q-4 0 -7 -1q-5 -64 -66 -64q-17 0 -31 7q-47 18 -47 64q0 31 26 56q19 18 37 21q6 1 31 0q-5 22 -9 66q0 28 1 52q1 15 8 50q-64 -57 -133 -172l-57 52v243h-54l-49 50h540zM369 508h-269v-158
l36 34q78 77 128 92l68 -49q-41 -54 -50 -133l-2 -18q-5 -42 -2 -68q20 -7 46 -25q8 -5 28 -31q17 -21 17 -16v372z" />
    <glyph glyph-name="Uacute" unicode="&#xda;" horiz-adv-x="464" 
d="M509 508h-186q38 -51 57 -91q34 -73 34 -97q10 -69 2 -114q-5 -29 -8.5 -39t-18.5 -33l-26 -39q-43 -59 -135 -56q-57 2 -101 36.5t-49 89.5q-5 54 26 77q12 9 15 13q24 13 60 42q12 6 22.5 31.5t7.5 39.5q-3 15 -15 30.5t-25 15.5q-6 0 -9 -3l7 -11q7 -11 7 -23
q0 -26 -18 -42.5t-45 -16.5q-29 0 -46.5 22t-17.5 52q0 40 27.5 63t68.5 23q58 0 83 -52q12 -24 11 -47q0 -17 -12 -51q15 11 32.5 48t15.5 56q-4 49 -17 76h-259l-51 50h295q-28 36 -55 94q-31 67 -28 105q4 60 58 98l53 -53q-59 -26 -59 -75q0 -40 46 -119q12 -20 33 -50
h170zM366 319q-12 60 -49 107q0 -95 -61 -167q-29 -34 -111 -82q-13 -7 -7 -34q13 -60 76 -60q24 0 54 15q18 9 60 59q58 69 38 162z" />
    <glyph glyph-name="Ucircumflex" unicode="&#xdb;" horiz-adv-x="552" 
d="M594 508h-289v-186q3 -15 4 -16q3 -6 15 -5q7 0 31 24q23 21 28 31l45 66q50 -38 68 -122q5 -23 5 -44q0 -47 -21 -96q-45 -105 -173 -104q-58 0 -113.5 37t-84.5 89q-2 3 -40 74q-15 38 -36 123l-20 88l43 -43q12 -62 39 -134q12 -31 55 -83q63 -76 159 -76q50 0 98 28
q20 12 44 52q14 33 15 46q2 43 -21 76q-9 -33 -68 -70q-32 -25 -59 -25q-44 0 -60 58q-7 25 -14 45q-2 6 -23 31t-24 25q-2 -1 -2 -2q-1 -3 4.5 -16.5t5.5 -18.5q0 -15 -14.5 -26.5t-29.5 -11.5q-11 0 -25 6q-25 11 -29 60q-2 28 19 45t50 17q26 0 51 -27t28 -54v139h-257
l-48 50h594z" />
    <glyph glyph-name="Udieresis" unicode="&#xdc;" horiz-adv-x="550" 
d="M594 508h-257v-139l35 17q12 6 41 9q18 2 40 -7t26 -25q1 -4 0 -8l-6 -60q-5 -50 -5 -119q0 -97 18 -170q-5 2 -26 19q-35 27 -40 49v250q-19 0 -34 -8q-21 -7 -50 -22v-318l-27 22l-6 28l-19 48q-6 16 -25.5 39t-34.5 27q-58 26 -92 25l-48 64q22 15 122 75l65 39
q-12 37 -61 61q-28 14 -61 5q-12 -3 -5 -15q12 -20 12 -28q0 -21 -17.5 -35.5t-38.5 -14.5q-25 0 -45.5 19t-16.5 44q2 43 27.5 69.5t68.5 26.5q63 0 119 -56l34 -49v138h-284l-53 50h594zM287 116v159l-50 -28l-61 -38q60 -30 111 -93z" />
    <glyph glyph-name="Yacute" unicode="&#xdd;" horiz-adv-x="536" 
d="M581 508h-120v-507l-51 38v240q0 10 -7 26t-15 20q-13 17 -35 17q-5 0 -17.5 -3.5t-12.5 -5.5q-4 -5 -26 -41q-21 -45 -62 -96q-15 -18 -45 -18q-21 0 -60 31q-3 2 -27 23l15 39l26 -16q5 -3 10 -3q25 0 40 24q10 12 10 26q0 16 -17 46q-21 38 -58 32q-3 0 -3 -2l4 -9
q5 -11 5 -16q0 -9 -6 -17q-19 -26 -43 -26q-14 0 -34 8q-35 8 -34 49q1 42 47 64q23 11 43 11t47 -15q25 -10 47 -50q19 -35 26 -35q3 -2 18 24q8 14 9 20q-2 18 -6 27q-20 46 -93 58q-33 6 -63 23l-13 14h-81l-50 50h582zM411 370v138h-169l24 -24q15 -15 22 -47
q1 -3 1 -17q0 -12 -1 -14q12 10 33 22q38 16 90 -58z" />
    <glyph glyph-name="Thorn" unicode="&#xde;" horiz-adv-x="700" 
d="M746 508h-373v-356q0 -35 28 -35q40 0 109 89q23 30 27 63q-7 -2 -15 -2q-21 0 -40 12t-23 32q-3 15 1 29q14 51 66 51q38 0 63 -33q22 -30 21 -69q-2 -42 -13 -72q-10 -26 -37 -62.5t-49 -52.5l-32 -23q-18 -13 -45 -24q-32 -4 -53 10q-36 24 -52 76q-4 13 -4 71v88
q-14 26 -43 62l-142 -138l-73 24l55 55q7 7 8 19q0 31 -35 29q-14 -1 -16 -3q-3 -6 -46 -16q-13 -3 -26 11.5t-13 27.5t9 28q46 76 150 85q71 6 149 -97q13 -17 23 -28v149h-21l-51 50h328q0 3 3.5 11t3.5 12t-2 6v7q-4 17 -30.5 27t-46.5 8q-36 0 -99 -5q-25 -2 -35 -2
q-57 0 -102 27q-52 32 -52 85q0 26 16 46q1 4 10 8t11 2q2 -7 2 -18q-12 -12 -12 -22q-4 -40 47 -55q21 -6 34 -5q50 4 54 4q-10 0 45 4q32 2 58 1q52 -3 81 -20q70 -42 62 -118l67 -3zM240 411q-5 8 -28 16t-35 8q-69 0 -89 -39q24 1 46.5 -16t22.5 -40q0 -7 -2 -12z" />
    <glyph glyph-name="germandbls" unicode="&#xdf;" horiz-adv-x="490" 
d="M533 508h-124v-192q69 -55 69 -134q0 -65 -52 -105q-47 -36 -114 -36q-28 -4 -67.5 10.5t-62.5 34.5q-42 23 -119 151l-47 124q-14 38 -18 94l34 -21l16 -55q10 -34 41 -93q10 -19 31 -51l44 -50q26 -30 53 -39q50 -17 84 -17q12 0 23 2q53 0 88 36q20 21 20 56
q-1 59 -54 72q-8 2 -30 -1q20 -20 20 -53q0 -39 -39 -53q-14 -5 -25 -5q-31 0 -49 24q-11 20 -11 40q0 8 2 16q-1 33 31 57q29 23 63 23q12 0 24 -3q-4 48 -17 66q-7 9 -24 29l-140 -132l-65 26q27 13 42 40q10 19 4 28q-14 15 -26 15q-11 0 -30 -7q-11 -2 -27 3
q-25 8 -25 29q0 7 4 18q16 41 60 71.5t88 30.5q15 0 30 -5q94 -31 125 -121v217l24 -22q-1 -5 8 -25q6 -33 13 -43q71 2 75 0zM279 473q-13 18 -33 25q-28 10 -58 -1.5t-46 -36.5q46 -9 55 -62z" />
    <glyph glyph-name="agrave" unicode="&#xe0;" horiz-adv-x="535" 
d="M315 460q-4 5 -29 24q-16 12 -46 12q-81 0 -113 -64q34 2 50 -20q21 -29 22 -57q0 -8 -2 -12zM326 227q-10 17 -35.5 27.5t-47.5 10.5q-81 0 -114 -66q42 2 59 -20q23 -30 22 -57q0 -7 -2 -12zM121 290l37 25q9 8 9 24q0 7 -1 16q-8 34 -32 32q-15 -1 -16 -3
q-3 -6 -46 -16q-14 -3 -28 11.5t-14 28.5q0 12 9 27q68 113 183 115q81 1 142 -74q43 -53 53 -99q0 57 -3 137q-1 20 -3 119l27 -20q1 -2 3 -5q1 -27 14 -40q3 -3 19 -10q3 1 26 1q24 0 29 -1l50 -50h-118v-527q-13 9 -58 58q1 102 -6 108q-8 10 -29 27l-160 -171l-82 27
l43 46q13 14 7 44q-8 36 -31 34q-15 -1 -16 -3q-4 -6 -46 -16q-15 -4 -24 9t-9 29q1 70 71 117zM257 308q84 0 135 -103q12 -24 12 -17v145l-18 40q-12 22 -29 34q-101 -88 -101 -98z" />
    <glyph glyph-name="aacute" unicode="&#xe1;" horiz-adv-x="650" 
d="M692 508h-122v-516l-49 45v222l-13 34q-16 41 -47 41q-32 0 -57 -57l-35 -92q-27 -59 -64 -59q-54 0 -92 85l30 31q9 -28 37 -47q2 -2 5 -2q15 0 27 26q9 21 10 39q0 13 -7 18q-9 9 -23 27q-3 5 -24 22l-82 -72l-55 -56l-66 23l43 40q12 15 12 28q1 16 -20 21q-9 2 -14 1
l-46 -12q-33 0 -33 25q0 8 4 18q32 83 135 95q63 7 130 -49q56 -47 62 -75l19 46q3 38 -33 74q-20 20 -64 33q-9 3 -38.5 22.5t-30.5 19.5h-193l-52 51h695zM521 354v154h-191l22 -28q32 -41 32 -72q0 -9 -3 -15q14 13 38 28q21 2 28 0q23 -11 47 -37zM225 353
q-15 30 -48 30q-35 0 -74 -34q21 0 28 -11q15 -22 10 -42z" />
    <glyph glyph-name="acircumflex" unicode="&#xe2;" horiz-adv-x="619" 
d="M663 508h-325q-7 0 -11 -23q8 -46 116 -58q52 -6 85 16l73 -68q-89 -111 -89 -242q0 -50 28 -130l-39 21l-14 54q-13 51 -14 120q-1 95 38 156q5 8 -56 12q-30 2 -70 18q-43 17 -60 37q-11 13 -26 37v-153q5 -10 11 -10q4 0 27 19q27 23 42 23q3 0 4 -3q26 6 44 -103
q2 -12 2 -25q0 -60 -53 -98q-41 -29 -73 -28q-75 3 -121.5 34t-85.5 99q-20 35 -45 130q-10 39 -17 99l32 -13q8 -41 26 -103q4 -14 35 -72q23 -43 72 -82q27 -21 52 -23l26 -2q2 -2 11 -2q56 0 88 52q10 16 1 55q-3 15 -10 15q-2 0 -4 -1q-23 -18 -25 -19q-13 -10 -58 -15
q-15 1 -26 23q-18 51 -43 66q-48 30 -68 28l-30 64q18 23 136 81v14h-252l-50 50h665zM249 315v120q0 2 -3 2q-14 0 -35 -16q-11 -5 -38 -29q30 -11 59 -47q12 -14 17 -30z" />
    <glyph glyph-name="atilde" unicode="&#xe3;" horiz-adv-x="558" 
d="M609 508h-341v-215q3 2 28 30q33 38 53 55q55 48 92 68l83 -61q-91 -126 -82 -227q2 -18 7 -70q3 -27 21 -83l-31 10l-13 34l-15 57q-8 32 -13 112q-3 47 22 129q-38 -23 -78 -74q-52 -66 -68 -123l-62 49q-1 7 -6 26q-10 38 -58 60q-43 21 -85 17l-46 79q123 81 203 112
v15h-215l-52 50h604zM217 266v158q-61 -20 -116 -70q61 -28 116 -88z" />
    <glyph glyph-name="adieresis" unicode="&#xe4;" horiz-adv-x="555" 
d="M605 508h-253v-180l36 11q11 3 43 13q14 2 32 -19q4 -3 33 -38q5 -12 9 -28q-1 -9 -3 -33q-4 -55 -3 -102q2 -78 20 -167q-19 13 -44 32l-17 26q-5 19 -13 42l3 188q0 6 -6.5 13.5t-12.5 7.5q-39 0 -49 -1q-28 -5 -28 -22v-317l-11 10q-22 54 -59 89q-68 79 -159 72
l-66 83l83 50q-6 5 -30.5 10.5t-35.5 5.5l-66 76q134 96 295 137v41h-300l-53 50h604zM303 316v78q-84 -21 -194 -91l67 -42zM303 51v190q-47 -17 -97 -45l-53 -35q55 -21 98 -58q21 -18 52 -52z" />
    <glyph glyph-name="aring" unicode="&#xe5;" horiz-adv-x="524" 
d="M567 508h-568l-49 50h568zM444 -5l-27 22q-3 2 -10 17t-7 19q-13 34 -34 38q-23 9 -49 9q-21 0 -64.5 -4.5t-65.5 -4.5q-152 2 -179 127q-9 41 1 84q14 62 21 59l20 -12q-6 -18 -9 -53q-1 -16 -1 -24q1 -27 24.5 -55t50.5 -34q2 0 52 -8q33 -5 51 -4q29 2 37 2
q73 0 110 -27q7 -5 31 -27v240l-22 -18q-82 -65 -131 -64q-48 1 -84 28q-20 15 -25 31q-15 31 -4 69q15 52 64 58q43 5 62 -35q6 -13 6 -27q0 -10 -16 -46q21 -5 84 53q11 17 31 45q2 3 6 3q17 0 47 -28.5t30 -45.5v-387z" />
    <glyph glyph-name="ae" unicode="&#xe6;" horiz-adv-x="199" 
d="M242 508h-246l-51 50h246zM149 337q0 -49 -38 -76q-26 -18 -51 -18q-55 0 -150 102v53q0 -3 29 -40q49 -62 95 -65q44 -3 60 47q5 17 2 33q-5 25 -31 40q3 -16 3 -25q-1 -33 -50 -44q-15 -3 -28.5 10t-17.5 29q-7 31 18 53t57 22q19 0 37 -10l33 -22q32 -29 32 -89z" />
    <glyph glyph-name="ccedilla" unicode="&#xe7;" horiz-adv-x="656" 
d="M696 508h-393q20 -29 22 -63q3 -50 -27 -84q-4 -2 -3 -6q0 -11 17.5 -28t29.5 -20l-97 -85q25 -9 77 -39q22 -16 65 -56v333q14 7 40 7q147 0 168 -99q9 -45 -11 -84q-22 -44 -68 -44q-45 0 -45 36q1 57 51 57q22 0 37 -16q1 6 2 20q1 23 -35 48q-17 12 -55 12
q-34 0 -34 -12v-376l-17 12l-21 39q-25 46 -66 64q-56 42 -139 42l-53 65q59 49 123 109q-3 3 -27 10q-8 0 -33 13q-26 10 -37 26q-15 17 -41 51q1 -6 1 -12q0 -23 -15 -41.5t-38 -19.5q-6 -2 -13 -2q-23 0 -40 14.5t-16 36.5q1 44 42 56q17 2 34 9q0 11 -8 20.5t-18 6.5
h-56l-49 50h697zM261 423q16 7 18 25q3 19 -7.5 38t-28.5 22h-129q-1 -16 9 -30q6 -9 41 -32q15 -10 45 -23q31 -10 52 0z" />
    <glyph glyph-name="egrave" unicode="&#xe8;" 
d="M-219 255v-375l-15 15l-24 58q-7 40 -46 88q-59 73 -137 64q-8 -1 -8 -3q30 -30 35 -53q7 -33 -8.5 -58.5t-49.5 -25.5q-36 0 -60 22t-25 58q-1 53 34 84.5t89 31.5q58 0 92 -36q68 -71 77 -110v188z" />
    <glyph glyph-name="eacute" unicode="&#xe9;" horiz-adv-x="585" 
d="M632 507h-233v-177q14 -3 45 -12q88 -25 105 -107q4 -19 4 -34q0 -32 -19 -59t-50 -27q-18 0 -31 13.5t-13 31.5q0 24 21 42q14 5 26 5q11 0 27 -11q3 0 3 12q0 27 -23 51q-35 36 -78 36q-9 0 -17 -2v-290l-21 18l-17 39q-41 94 -195 94l-48 71l104 74l103 55q2 3 2 10
q0 9 -2 19q-8 37 -21 41q-7 2 -13 2q-22 0 -33 -25q-9 -20 -8 -45l-35 24q-1 22 -17 35t-38 13q-80 0 -89 -53q-5 -33 3 -46t39 -28q-12 20 -12 40q0 36 48 38q43 2 50 -31q5 -22 -1 -34q-22 -45 -70 -45q-37 0 -68 22t-38 58q-3 15 0 36q15 105 120 105q29 0 49 -21l33 -34
q-1 18 10.5 33t29.5 16q26 2 41 -9q4 -2 16 -18q28 -28 28 -62v136h-356l-51 51h638zM353 99v172q-23 -6 -75 -38q-21 -13 -56 -43q18 -3 67 -27q36 -24 64 -64z" />
    <glyph glyph-name="ecircumflex" unicode="&#xea;" horiz-adv-x="497" 
d="M540 508h-139v-571l-31 31q0 5 -2 47q-3 11 -11 43q-15 55 -61 93.5t-102 38.5q-10 0 -15 -4q-8 -5 -42 -46q22 9 53 8q36 -1 58.5 -23t22.5 -58t-27 -73q-28 -30 -54 -36l-62 34l61 43q39 19 39 55q0 18 -22 18q-18 0 -62.5 -23t-54.5 -23q-8 0 -11 5q-22 29 -22 58
q0 45 44 81.5t89 36.5q30 0 70.5 -17t56.5 -40q6 -8 33 -51v199q1 2 1 5q0 18 -14.5 38.5t-31.5 22.5q-45 6 -49 -43q-2 -24 -3 -26q-1 0 -2 1l-29 38q-13 16 -27 23q-6 3 -34 11q-18 3 -44 -5q-39 -12 -45 -48q-4 -24 -2 -36q4 -20 44 -38q-12 20 -12 40q0 36 48 38
q43 2 50 -31q5 -22 -1 -34q-22 -45 -70 -45q-37 0 -68 22t-38 58q-3 15 0 36q15 105 120 105q30 0 49 -21l31 -34q-1 19 11 33t31 16q41 5 65 -25q2 -2 20 -22v95h-349l-51 50h541z" />
    <glyph glyph-name="edieresis" unicode="&#xeb;" horiz-adv-x="690" 
d="M734 508h-341v-336q0 -34 29 -34q42 0 113 88q19 23 22 63q-7 -2 -15 -2q-21 0 -40 12.5t-23 32.5q-3 12 1 28q11 52 61 52q53 0 76 -50q16 -33 14 -57q-5 -72 -55 -144q-42 -60 -118 -83q-37 -7 -57 7q-46 33 -56 78q-2 9 -2 70q0 41 1 105q2 1 1 5q-1 7 -15 26
q-25 34 -43 34q-6 0 -12 -3q-13 -5 -13 -17q5 -14 7 -37q-23 -18 -32 -18q-2 0 -3 2q-3 14 -17 42q-14 19 -61 32q-9 1 -16 1q-45 0 -69 -43q-9 -17 -9 -32q0 -31 47 -53q-12 20 -12 40q0 36 48 38q43 2 50 -31q5 -22 -1 -34q-22 -45 -70 -45q-37 0 -68 22t-38 58
q-3 15 0 36q15 105 120 105q30 0 49 -21l31 -34q-1 18 11.5 32.5t30.5 16.5q27 3 42 -8l15 -19q23 -23 28 -48v123h-346l-50 50h587q3 9 7 28q0 5 -2 7q3 19 -30 33q-27 11 -47 9q-66 1 -135 -2q-46 -2 -35 -2q-56 0 -102 27q-53 32 -53 85q0 26 17 46q1 4 9.5 8t11.5 2
q2 -7 2 -18q-11 -12 -12 -22q-4 -40 47 -55q21 -6 34 -5q43 4 54 4q126 3 139 2q103 -6 138 -85q12 -26 -2 -62h106z" />
    <glyph glyph-name="igrave" unicode="&#xec;" horiz-adv-x="618" 
d="M668 508h-278v-186q3 -15 4 -16q3 -6 15 -5q7 0 31 24q23 21 28 31l45 66q50 -38 68 -122q5 -23 5 -44q0 -47 -21 -96q-45 -105 -173 -104q-57 0 -113.5 37t-84.5 89q-17 31 -17 47t29 28q22 -57 74 -91.5t114 -34.5q50 0 98 28q20 12 44 52q14 33 15 46q2 43 -21 76
q-9 -33 -68 -70q-30 -24 -61 -24q-26 0 -43 15.5t-15 41.5l-1 38q2 2 1 6q-2 10 -14 28q-18 27 -30 32q-5 1 -10 1q-13 0 -26 -10q-3 -3 -3 -9q0 -20 11 -26q-4 -20 -26 -24l-29 38q-13 16 -27 23q-6 3 -34 11q-18 3 -44 -5q-39 -12 -45 -48q-4 -24 -2 -36q4 -20 44 -38
q-12 20 -12 40q0 36 48 38q43 2 50 -31q5 -22 -1 -34q-22 -45 -70 -45q-51 0 -79 32.5t-27 83.5q0 50 32 75q20 16 70 28q8 2 18 2q30 0 49 -21l31 -34q-1 18 11.5 32.5t30.5 16.5q27 3 47 -14q13 -11 30 -41q6 -10 8 -20v123h-346l-51 50h671z" />
    <glyph glyph-name="iacute" unicode="&#xed;" horiz-adv-x="524" 
d="M577 508h-130v-527l-20 9q-8 55 -14 75q-13 46 -38 63l-169 -171l-73 27l43 46q13 14 7 44q-7 36 -31 34q-15 -1 -16 -3q-4 -6 -46 -16q-13 -3 -27.5 11.5t-14.5 28.5q0 19 48 81q3 6 15 13q-1 0 -1 1h-1q-63 38 -63 119q0 51 28 93q31 47 80 48q53 1 93 -39l18 -23
q0 16 22.5 37.5t38.5 21.5q34 -1 50 -17q4 -6 14 -23q1 -1 7 -13v80h-399l-51 50h579zM397 156v181q2 7 2 14q0 18 -12 42q-14 17 -33 17q-22 0 -34.5 -17.5t-9.5 -38.5l4 -25l-21 -8q1 2 -10 24q-15 30 -30.5 42.5t-48.5 20.5q-8 2 -20 2q-36 0 -64 -25.5t-28 -61.5
q0 -60 67 -71q-14 19 -14 40q0 23 16.5 38t39.5 15q37 1 50 -32q10 -24 5 -39q71 -8 118 -71q19 -25 23 -47zM333 181q-9 16 -32 26t-43 10q-82 0 -113 -64q34 2 50 -20q22 -30 22 -57q0 -8 -2 -12z" />
    <glyph glyph-name="icircumflex" unicode="&#xee;" horiz-adv-x="680" 
d="M723 508h-413v-137q0 -10 32 -64l-97 -85q25 -9 77 -39q22 -16 65 -56v333q14 7 40 7q147 0 168 -99q9 -45 -11 -84q-22 -44 -68 -44q-45 0 -45 36q1 57 51 57q22 0 37 -16q1 6 2 20q1 23 -35 48q-17 12 -55 12q-34 0 -34 -12v-376l-17 12l-21 39q-25 46 -66 64
q-56 42 -139 42l-53 65q78 65 123 109q11 11 11 26q0 9 -6 16q-14 16 -29 8q-14 -7 -17 -33q-3 -21 -6 -18q-12 8 -31 27q-7 19 -10 24q-7 11 -22 16q-23 8 -54 -7t-35 -39q-4 -27 2 -36.5t32 -23.5q-9 15 -9 30q0 19 15 27.5t34 5.5q27 -4 32 -27q4 -21 -5 -36
q-22 -35 -57 -35q-36 0 -58 25l-23 26q-6 10 -9 23q-4 18 0 42q15 89 94 90q23 0 41 -10q3 -2 14 -12l33 -30q5 39 35 41q18 1 25 -16v64h-266l-51 50h730z" />
    <glyph glyph-name="idieresis" unicode="&#xef;" horiz-adv-x="497" 
d="M371 597q7 -24 31 -75q12 -15 23 -31q31 -46 37 -59q13 -30 10 -82q-1 -24 -13 -38q-6 -8 -32 -28q15 -22 20 -68q10 -82 -93 -121q-29 -11 -87 1q-29 6 -79 41q-58 33 -125 160q-43 82 -59 182l-11 70l36 -25q2 -7 8 -44q22 -132 103 -213q98 -98 181 -98q33 0 60 11
q36 16 36 44q0 7 -3 15l-2 11q-17 -14 -36 -14q-38 0 -59 37q-7 12 -7 26q-1 22 16 40.5t39 18.5q25 0 41 -16q14 6 17.5 8.5t11 14t2.5 36.5q-4 20 -17 46q-19 38 -32 41l-46 -82q-25 75 -63 93q-12 12 -19 12q-5 0 -20 -23q14 -4 36 -32q29 -37 24 -54l-13 -24
q-11 -13 -25 -9q-8 -5 -18 -5q-19 0 -32 18q-8 11 -10 11l-15 -18q-22 -27 -46 -23q-49 7 -49 44q-1 53 68 98l-24 26q-25 9 -43 9q-7 0 -12 -1l-28 4l-22 39q12 4 30 4q59 0 75 -15q18 -2 42 -30q14 -17 17 -29q1 11 25 44q15 20 35 16q29 -9 44 -24q10 -10 29 -44z" />
    <glyph glyph-name="eth" unicode="&#xf0;" horiz-adv-x="635" 
d="M681 508h-337q7 -17 14 -42q15 -21 48 -44q8 -6 81 -33q87 -23 100 -73q2 -8 2 -16q-1 -92 -104 -194q-60 -59 -105 -59q-28 0 -60 42q-24 32 -24 53v265q0 23 -11.5 48.5t-30.5 32.5q-5 3 -10 3q-13 0 -44 -37q31 -19 43 -40q19 -18 19 -33q0 -8 -5 -19q-14 -32 -42 -32
q-22 0 -43 26q-16 20 -20 16q-7 -13 -31 -34q-22 -12 -36 -12q-18 0 -31 12t-13 30q2 2 4 3q8 26 23 59q14 15 40 32q-42 39 -71 33q-12 1 -22 1q-12 0 -18 -2l-47 47q34 10 72 6q53 -6 69 -19q33 -27 45 -50q5 18 40 53q20 20 39 20q14 0 39 -16t32 -29q2 -4 13 -17l1 69
h330zM510 302q-22 7 -61 25q-74 46 -104 99v-283q0 -28 21 -28q39 0 112 86q34 40 34 80q0 11 -2 21z" />
    <glyph glyph-name="ntilde" unicode="&#xf1;" horiz-adv-x="702" 
d="M726 -78q-101 105 -214 142q-55 18 -78 24q-40 10 -80 13l-48 93q49 -17 87 -17q31 0 71 11q77 21 108 61q21 27 33 76q1 4 0 10q-6 29 -28 39q-8 10 -30 10t-21 -6q2 -12 2 -21q0 -55 -89 -106q-35 -20 -64 -20q-28 0 -52 17q-27 19 -27 45l-1 117q0 25 -8 40
q-22 41 -43 41q-9 0 -17 -9q-12 -9 -27 -28q34 -21 48 -48q12 -7 12 -28q0 -19 -13.5 -33.5t-32.5 -14.5q-22 0 -41 24q-15 19 -19 19q-1 0 -2 -1l-21 -24q-18 -21 -51 -21q-34 0 -38 42q0 4 2 22q6 25 24 39q13 14 40 32q-31 24 -56 24q-6 0 -11 -1q-30 1 -40 -3l-51 59
q34 10 72 6q53 -6 69 -19q33 -27 45 -50q6 19 40 53q20 20 39 20q33 0 84 -62l1 69h393l50 -50h-398l14 -36q11 -12 59 -34q29 -13 86 -1q14 3 26 3q53 0 87.5 -40t34.5 -93q0 -75 -82 -143q-25 -21 -71 -34q104 -43 191 -132l32 -33zM460 375q-20 8 -64 30q-23 15 -28 19
q-16 12 -24 25v-145q0 -32 24 -27q19 4 47 23.5t39 36.5q9 14 6 38z" />
    <glyph glyph-name="ograve" unicode="&#xf2;" horiz-adv-x="690" 
d="M326 508h-194l61 -44q34 -27 54 -53l39 -35q31 -26 40 -27v159zM325 130v166l-38 28q-37 27 -42 41q-30 -18 -98 -90q29 -11 80 -48q61 -44 98 -97zM594 183q12 15 12 28q0 14 -31 45l-22 -12q-18 -10 -32 -9q-24 1 -41.5 15.5t-18.5 37.5q-1 21 17.5 38.5t39.5 17.5
q12 0 22 -6q13 2 21 0l12 -3q3 0 6 4q16 23 17 45q1 21 -17 35.5t-40 14.5q-34 0 -74 -28q-35 -24 -59 -56q-28 -37 -28 -64q0 -34 32 -69q27 -30 62 -48q24 -12 56 -12q46 0 66 26zM375 1l-20 22q-5 7 -29 52q-40 73 -117 107q-28 19 -51 24q-18 4 -52 4l-67 87l77 69
q10 9 74 59q-12 7 -80 26q-23 6 -41 14q-20 3 -31 7q-20 6 -25 16q0 6 -12 19l-15 15l-35 36h451l49 -50h-75v-142q0 4 21 38q8 13 27 36q54 65 108 65q36 0 67 -33q42 -33 42 -89q0 -51 -40 -92q11 -22 23 -43q15 -35 15 -67q0 -39 -18 -66q-21 -31 -58 -31q-52 0 -142 73
q-12 10 -32 34q-1 2 -15 19z" />
    <glyph glyph-name="oacute" unicode="&#xf3;" horiz-adv-x="440" 
d="M445 508h-107q8 -13 18 -31q9 -22 9 -43q0 -28 -18 -53l-20 -28q-32 -45 -133 -117q-81 -58 -74 -94q4 -23 32 -23q4 1 61 11q16 3 53 21q41 20 38 28q3 1 3 3q-28 32 -28 44q0 26 25 45q13 10 30 10q26 0 44 -19t18 -45q0 -24 -15 -47q-17 -35 -66 -55q-24 -14 -56 -24
q-56 -18 -98 -13q-53 7 -74 28q-24 24 -18 76q5 42 62 89l32 26q3 2 3 4q0 7 -11 8q-6 1 -21 -1q-12 -1 -16 0q-53 29 -53 82q0 37 24 78q20 33 40 40h-129l-49 50h316l34 -22q22 11 22 33q0 3 -1 6q1 4 1 8q0 11 -7 24q-3 6 -47 15q-17 -1 -98 -4q-16 0 -63 -3
q-74 2 -120 63q-14 15 -14 43q0 47 20 66l25 -8q-13 -16 -13 -35q0 -14 8 -32q9 -33 124 -29q14 0 47 3q30 3 47 3q45 -5 65 -15q30 -15 47.5 -48t17.5 -68q0 -2 23 -2h23zM251 506q-16 0 -33 -7q-22 -9 -21 -23q69 -89 74 -86q36 15 36 63q-1 53 -56 53zM243 367l-72 91
q-2 3 -21 -16q-28 -22 -28 -51q0 -8 3 -19q12 -43 57 -41q18 1 38 8q25 9 25 23q0 3 -2 5z" />
    <glyph glyph-name="ocircumflex" unicode="&#xf4;" horiz-adv-x="487" 
d="M536 508h-204q35 -50 70 -139q17 -44 20 -71q0 -3 1 -60q0 -34 -3 -50l-12 -36q-15 -44 -56 -73q-62 -43 -106 -43q-47 0 -81 13q-46 17 -72 58t-26 91q0 13 2 25l74 29q-25 5 -49 22q-39 27 -44 49q-4 19 28 66q24 35 24 56q0 7 -2 13q-24 50 -80 50h-21l-49 50h300
q2 0 2 2q0 5 -20 34q-25 37 -28 42q-36 64 -36 112q0 55 45 98l58 -38q-31 -22 -39 -34q-15 -21 -13 -56q3 -58 37 -100l48 -60h182zM278 457q-2 23 -14 51h-137l63 -56q4 -3 43 -47q23 -26 34 -28q16 18 11 80zM246 342q-6 8 -36.5 36.5t-33.5 28.5q-1 0 -2 -1
q-56 -43 -56 -72q1 -53 44 -53q22 0 45 17q41 31 39 44zM324 433q4 -107 -63 -182q-21 -23 -108 -75q-14 -8 -8 -37q12 -54 75 -54q45 0 84 38q34 32 52 79q15 38 15 78q0 88 -47 153z" />
    <glyph glyph-name="otilde" unicode="&#xf5;" horiz-adv-x="644" 
d="M695 508h-430q18 -20 20 -57q3 -40 -14 -62l-13 -19l69 -74l-104 -79q61 -20 89 -43q47 -39 61 -60v334q12 5 37 5q167 0 191 -109q9 -40 -6 -75q-17 -40 -56 -45q-16 -2 -32 6.5t-19 22.5t-3 23q0 45 45 45q21 0 37 -15q1 6 2 17q0 10 -27 41q-19 22 -79 22
q-38 0 -38 -13v-372l-40 18l-11 46q-12 51 -99 79q-56 18 -90 15l-61 70l120 94q2 2 -7 11t-14 6q-30 -24 -88 -35q-10 -2 -19 -2q-43 0 -71 30t-28 74q-1 54 56 101h-75l-51 50h697zM244 467q2 15 -12 24q-28 14 -37 14q-11 0 -32 -10q-24 -11 -24 -20q0 -2 1 -4l65 -58
q33 -1 39 54zM176 392l-66 50q-2 2 -5 2q-11 0 -22.5 -14.5t-13.5 -26.5q-1 -8 15 -36q10 -17 30 -17q19 0 38 18q25 17 25 21q0 2 -1 3z" />
    <glyph glyph-name="odieresis" unicode="&#xf6;" horiz-adv-x="560" 
d="M605 508h-120v-532l-21 7q-7 10 -24 37q-8 13 -29 27.5t-36 18.5q-22 15 -85 25q-25 4 -60 -1l-71 91q19 -3 36 -3q29 0 59 11q85 31 88 66q1 16 -11 31l-130 -58q-7 -2 -14 -2q-57 0 -72 48q-9 29 8 48.5t47 22.5q16 2 37.5 -7.5t26.5 -23.5q44 11 46 42q1 12 -23 17
q-31 5 -37 10q-24 18 -47 68q-1 0 -25.5 -40t-39.5 -49q-22 -13 -39 -13q-23 0 -41 19q-8 5 -19.5 19.5t-9.5 21.5l13 21q1 2 2 2l17 -14.5t25 -14.5q3 0 5 1q7 2 20 16q29 31 29 72q0 16 -9 16h-100l-51 50h346q18 0 39 -26q30 -36 30 -87q0 -25 -38 -78q16 -15 45 -56
q13 -27 15 -50q3 -52 -32 -91q-11 -12 -42 -28q32 -9 33 -10q14 -5 34 -20q15 -9 54 -40v582l13 -13l17 -39q8 -19 23 -44q25 1 69 0zM320 458q3 7 3 14q0 30 -36 36h-94q0 -56 70 -76q7 -2 13 -2q37 0 44 28z" />
    <glyph glyph-name="divide" unicode="&#xf7;" horiz-adv-x="760" 
d="M385 331v177h-226l28 -23q36 -30 36 -86q0 -10 -2 -19q5 2 9 3q17 16 44 32q37 3 57 -19q11 -12 54 -65zM385 145v115l-8 27q-3 20 -23 37t-40 17q-29 0 -52 -35q-81 -122 -103 -126q-6 -1 -18 -1q-35 0 -40 9q-21 3 -55 63l-20 37l33 32q1 -10 11 -30t17 -27
q10 -10 20 -10q17 0 48 42l43 58q-3 34 -8 49q-20 60 -83 62q-44 2 -56 5q-32 9 -45 20l-11 25l-45 43h696q0 16 1 29q-4 24 -26 35t-47 8q-36 0 -99 -5q-25 -2 -35 -2q-57 0 -102 27q-52 32 -52 85q0 26 16 46q1 4 10 8t11 2q2 -7 2 -18q-12 -12 -12 -26q0 -37 47 -51
q21 -6 34 -5q50 4 54 4q-10 0 45 4q32 2 58 1q110 -6 138 -85q8 -23 5 -56h67l50 -50h-373v-335q0 -36 39 -36q51 0 119 87q23 29 27 63q-7 -2 -15 -2q-21 0 -40 12t-23 32q-3 15 1 29q14 51 66 51q44 0 70 -44q15 -26 14 -58q-4 -87 -52 -137q-95 -98 -145 -94
q-7 -1 -14 -1q-33 0 -62.5 19.5t-37.5 50.5z" />
    <glyph glyph-name="oslash" unicode="&#xf8;" 
d="M-83 210l1 -218q-13 7 -29 18q-11 49 -13 54q-7 18 -26 18q-34 0 -34 -30q-1 -9 2 -12l9 -11l-36 -10q-1 5 -11 21q-41 62 -99 62q-34 0 -57 -15q-27 -17 -29 -49q-1 -13 16 -27t32 -18q0 21 1 26q8 18 37 24q10 2 19 2q38 0 44 -26q1 -6 -2 -25q-10 -54 -71 -54
q-109 0 -129 83q-7 29 7 60q33 72 109 72q72 0 109 -42l20 -23q0 24 2 27q15 25 38 22q19 -2 39 -17q3 -4 4 -5v93h47z" />
    <glyph glyph-name="ugrave" unicode="&#xf9;" horiz-adv-x="715" 
d="M734 508h-295q33 -26 33 -80q0 -28 -18 -49q-31 -36 -57 -36l27 -41l-107 -90q36 -15 53 -23q35 -16 49 -28l38 -32q16 -13 33 -37v340q15 7 42 7q61 0 105 -23q54 -27 65 -81q3 -14 3 -31q0 -39 -17 -67q-20 -34 -56 -34q-24 0 -45 25q-8 9 -10 22q-6 34 25 51
q11 6 24 6q19 0 34 -13l-4 33q-16 39 -94 39q-24 0 -24 -7v-387l-33 17l-21 47q-18 41 -83 80q-45 27 -94 27q-20 0 -39 -4l-45 86q13 9 88 71q22 18 46 43q-7 13 -35 17q-32 5 -41 13q-24 21 -33 51q-4 13 -7 25q-3 9 -11 9q-3 0 -3 -3l-32 -65q-30 -61 -77 -61
q-25 0 -52.5 30.5t-24.5 54.5l9 24q1 3 2 3q35 -41 45 -39q26 11 35 25q46 69 46 77t-11 8h-168l-48 50h733zM417 458q2 9 0 18q-4 20 -27 33h-116q-14 -3 -27 -12q-1 -7 10.5 -26t18.5 -24q32 -33 79 -33q18 0 31 7q30 17 31 37z" />
    <glyph glyph-name="uacute" unicode="&#xfa;" horiz-adv-x="406" 
d="M457 508h-116v-507q-12 12 -55 52l7 258q-13 33 -33 73q-6 11 -24 23l-169 -171l-73 27l43 46q13 14 7 44q-8 36 -31 34q-15 -1 -16 -3q-3 -6 -46 -16q-14 -3 -28 11.5t-14 28.5q0 12 9 27q68 113 183 115q60 1 110 -38q46 -35 72 -93q28 -62 30 -79l-17 135l-6 158
l27 -20q1 -2 3 -5q2 -27 14 -39l18 -11q3 1 27 1t29 -1zM194 460q-4 5 -29 24q-16 12 -46 12q-81 0 -113 -64q34 2 50 -20q21 -29 22 -57q0 -8 -2 -12z" />
    <glyph glyph-name="ucircumflex" unicode="&#xfb;" horiz-adv-x="442" 
d="M491 508h-491l-51 50h492zM497 -137q-7 7 -26 24q-43 39 -110 85q-85 59 -195 99q-44 16 -79 23l-49 125q68 -30 140 -30q36 0 60 9l38 14q88 44 88 98q0 13 -5 26q-21 58 -33 58q-1 0 -2 -1l-73 -95q1 2 -21 12l-22 10q5 15 5 26q-2 38 -35 45q-10 2 -18 2
q-20 0 -38 -13t-17 -32q0 -2 16 -2q33 -1 44 -30q11 -30 -8 -50t-51 -20q-33 0 -58.5 19t-31.5 51q-6 29 5 66q18 61 101 77q37 7 55 -8q45 -38 53 -60l73 88l30 -30q84 -84 78 -166q-5 -67 -54 -109q-35 -30 -110 -58l-1 -1q0 -6 42 -34q49 -33 57 -40l133 -117z" />
    <glyph glyph-name="udieresis" unicode="&#xfc;" horiz-adv-x="522" 
d="M570 508h-355q7 -11 14 -25q3 -3 3 -7q0 -8 27 -18l1 -1q4 1 23 -3q45 -10 67 -41q8 -11 22 -51l47 14q14 -10 29 -19q10 -7 27 -27l19 -22q-3 -12 -7 -33q-17 -87 -15 -103l9 -90q9 -31 20 -73q-22 19 -49 39q-8 4 -23 49q-6 47 -7 65q-1 22 8 111q0 30 -17 29
q-14 -1 -20 -3q-12 -3 -14 -11t-8 -20q-19 -38 -41 -55q-10 -7 -51 -27q-31 -15 -31 -22q0 -12 16 -18.5l31 -12.5q105 -79 133 -113l38 -60l6 -23l6 -21q-69 84 -204 163q-92 54 -192 72l-55 135q72 -48 145 -48q22 0 38 4q65 16 90 41q7 7 20 17q16 17 17 37q1 34 -27 54
t-63 20q-13 0 -21 -4q-1 -36 -44 -74q-22 -20 -51 -20q-49 0 -59 47q-4 22 21 58q19 27 53 38l38 12q3 2 2 6q-1 5 -12 15q-18 16 -30 19h-144l-52 50h574z" />
    <glyph glyph-name="yacute" unicode="&#xfd;" horiz-adv-x="595" 
d="M639 508h-420q5 -19 17 -44q5 -4 6 -4q3 2 5 2q18 0 52 -18t47 -32q9 -11 27 -48q8 13 40 33q41 26 72 26q16 0 31 -7q58 -27 58 -99q0 -46 -32 -86q-26 -32 -60 -32q-22 0 -42 18t-21 40q0 13 14 35.5t26 22.5q22 -6 46 -33q29 18 29 46q0 4 -2 8q-17 35 -55 35
q-25 0 -69 -25q-10 -6 -18 -20q-4 -22 -26 -57t-40 -52q-25 -24 -85 -54q-3 -2 -3 -5q0 -9 49 -37q62 -35 77 -48l78 -65l26 -83q-72 81 -192 151q-99 58 -192 75l-62 127q64 -45 141 -45q32 0 100 27q25 10 37 23q36 26 36 52q-1 50 -43 67q-23 9 -40 9q-15 0 -24 -7
q-11 -59 -86 -66q-22 -2 -40 5q-23 9 -27 28q-4 21 24 54q20 24 86 46q2 1 2 3q1 8 -16 19.5t-27 13.5h-141l-55 51h641z" />
    <glyph glyph-name="thorn" unicode="&#xfe;" horiz-adv-x="639" 
d="M686 508h-254v-70l88 17l52 -53q-5 -64 -7 -139q-3 -88 5 -167l-49 -30q-9 128 -8 170q2 68 5 151l-87 -6v-384l-34 33l-14 68q-17 80 -92 122q-4 -9 -20 -25q-26 -17 -47 -18q-29 -2 -48 12q-22 15 -21 44q0 15 7 31q16 38 66 38q6 0 12 -1q6 12 6 27q0 34 -22 58
t-55 20q-3 -14 -10 -31q-21 -50 -67 -50q-26 0 -42.5 15.5t-16.5 40.5q0 22 14 45t34 29q10 3 16.5 6.5t8.5 9.5q2 12 -31 37h-77l-50 50h687zM381 438v70h-131q-4 0 -4 -4q0 -18 22 -37q33 -29 73 -31q32 -2 40 2zM382 170v203q-53 3 -93 32q-14 10 -47 49t-41 54
q-33 -2 -50 -2t-19 2l4 -19q5 -14 14 -16q52 -11 85 -57l23 -33q12 -24 13 -48q0 -15 -5 -34q4 -1 22 -23q4 -7 9 -28q31 -4 60 -39q1 -2 25 -41z" />
    <glyph glyph-name="ydieresis" unicode="&#xff;" horiz-adv-x="665" 
d="M710 508h-265v-80q12 4 34 4q51 0 90.5 -28t49.5 -76q8 -39 -5 -73q-16 -39 -55 -39q-55 0 -72 32q-6 11 -6 22t12 28t23 17q26 -1 37 -4q20 -6 28 -24q7 23 7 28q0 25 -29 40q-24 13 -52 15q-37 3 -60 -6v-360l-23 28l-22 63q-7 21 -37 69q-17 28 -64 50
q-16 -48 -68 -48t-62 48q-7 34 14 57.5t56 23.5q7 0 12 -1q5 12 5 26q0 28 -20 49.5t-47 22.5q-11 0 -26 -11q0 -8 -7 -25q-15 -35 -49 -39q-33 -3 -54 29q-11 17 -11 39q0 50 35 63q11 -2 25 5q2 4 1 10q-3 12 -21 30q-11 15 -18 15h-72l-47 50h712zM396 428v80h-93
q-11 0 -11 -22q0 -63 81 -63q16 0 23 5zM397 168v193q-76 7 -121 69q-28 39 -32 78h-123q8 -12 23 -49q2 -8 28 -14q81 -19 132 -125q11 -23 12 -54q59 -36 81 -98z" />
    <glyph glyph-name="ch264" horiz-adv-x="269" 
 />
    <glyph glyph-name="glyph219" horiz-adv-x="269" 
 />
    <glyph glyph-name="glyph225" horiz-adv-x="269" 
 />
    <glyph glyph-name="ch267" horiz-adv-x="269" 
 />
    <glyph glyph-name="ch268" horiz-adv-x="269" 
 />
    <glyph glyph-name="ch269" horiz-adv-x="269" 
 />
    <glyph glyph-name="ch270" horiz-adv-x="269" 
 />
  </font>
</defs>
</svg>
